<svg width="41" height="41" viewBox="0 0 41 41" fill="none" xmlns="http://www.w3.org/2000/svg">
<g clip-path="url(#clip0_849_953)">
<path d="M7.7304 14.2489C8.19591 13.6504 8.52841 12.8524 8.42866 12.0544C7.7304 12.0876 6.89915 12.5199 6.4004 13.0851C5.96814 13.5839 5.56914 14.4151 5.66889 15.1799C6.4669 15.2796 7.23165 14.8474 7.7304 14.2489ZM8.42866 15.3794C7.29815 15.3129 6.3339 16.0111 5.80189 16.0111C5.26989 16.0111 4.43863 15.4126 3.54088 15.4126C2.37712 15.4459 1.31311 16.0776 0.71461 17.1416C-0.482398 19.2364 0.382107 22.3287 1.57912 24.0244C2.14437 24.8557 2.84262 25.7867 3.74038 25.7534C4.60489 25.7202 4.93739 25.1882 5.96814 25.1882C6.9989 25.1882 7.29815 25.7534 8.22916 25.7202C9.16016 25.6869 9.75867 24.8889 10.3239 24.0244C10.9889 23.0602 11.2549 22.1292 11.2549 22.0959C11.2217 22.0627 9.42617 21.3977 9.42617 19.3361C9.39292 17.6071 10.8227 16.7759 10.8892 16.7426C10.1244 15.5456 8.86091 15.4126 8.42866 15.3794Z" fill="black"/>
<path d="M18.2044 13.0186C20.665 13.0186 22.3607 14.7144 22.3607 17.1416C22.3607 19.6022 20.6317 21.2979 18.1379 21.2979H15.4447V25.5872H13.4829V13.0186H18.2044ZM15.4447 19.6687H17.6724C19.3682 19.6687 20.3325 18.7377 20.3325 17.1749C20.3325 15.5789 19.3682 14.6811 17.6724 14.6811H15.4114V19.6687H15.4447ZM22.8595 23.0269C22.8595 21.4309 24.0897 20.4334 26.2842 20.3004L28.8113 20.1674V19.4692C28.8113 18.4384 28.113 17.8399 26.9825 17.8399C25.8852 17.8399 25.2202 18.3719 25.054 19.1699H23.2585C23.3582 17.5074 24.788 16.2771 27.049 16.2771C29.2768 16.2771 30.7065 17.4409 30.7065 19.3029V25.6204H28.911V24.1242H28.8778C28.3458 25.1549 27.182 25.7867 25.985 25.7867C24.123 25.7867 22.8595 24.6562 22.8595 23.0269ZM28.8113 22.1957V21.4642L26.5502 21.5972C25.4197 21.6637 24.788 22.1624 24.788 22.9604C24.788 23.7584 25.453 24.2904 26.4505 24.2904C27.7805 24.2904 28.8113 23.3927 28.8113 22.1957ZM32.369 29.012V27.4825C32.502 27.5157 32.8345 27.5157 32.9675 27.5157C33.832 27.5157 34.2975 27.15 34.5968 26.2189C34.5968 26.1857 34.763 25.6537 34.763 25.6537L31.438 16.4766H33.4663L35.7938 23.9579H35.827L38.1546 16.4766H40.1496L36.7248 26.1524C35.9268 28.3802 35.029 29.0785 33.1338 29.0785C33.0008 29.0452 32.5353 29.0452 32.369 29.012Z" fill="black"/>
</g>
<defs>
<clipPath id="clip0_849_953">
<rect width="40" height="40" fill="white" transform="translate(0.149414 0.566406)"/>
</clipPath>
</defs>
</svg>
