<svg width="41" height="41" viewBox="0 0 41 41" fill="none" xmlns="http://www.w3.org/2000/svg">
<path d="M15.334 12.1606H24.9649V29.4135H15.334V12.1606Z" fill="#FF5F00"/>
<path d="M15.9455 20.7871C15.9455 17.2817 17.5965 14.1724 20.134 12.1605C18.2692 10.6974 15.915 9.81348 13.3468 9.81348C7.26224 9.81348 2.33984 14.721 2.33984 20.7871C2.33984 26.8529 7.26224 31.7606 13.3466 31.7606C15.9148 31.7606 18.269 30.8767 20.134 29.4134C17.5965 27.4321 15.9455 24.2925 15.9455 20.7871Z" fill="#EB001B"/>
<path d="M37.9592 20.7871C37.9592 26.8529 33.0368 31.7606 26.9525 31.7606C24.3842 31.7606 22.0301 30.8767 20.165 29.4134C22.7333 27.4017 24.3537 24.2925 24.3537 20.7871C24.3537 17.2817 22.7026 14.1724 20.165 12.1605C22.0299 10.6974 24.3842 9.81348 26.9525 9.81348C33.0368 9.81348 37.9592 14.7516 37.9592 20.7871Z" fill="#F79E1B"/>
</svg>
