<svg width="41" height="41" viewBox="0 0 41 41" fill="none" xmlns="http://www.w3.org/2000/svg">
<g clip-path="url(#clip0_849_965)">
<path d="M20.8021 18.2183C20.7804 19.8833 22.3255 20.8124 23.4894 21.3648C24.6852 21.9315 25.0869 22.295 25.0821 22.8019C25.0732 23.5776 24.1283 23.9199 23.244 23.9332C21.7013 23.9565 20.8043 23.5275 20.0912 23.2031L19.5355 25.736C20.2509 26.0571 21.5758 26.3371 22.9495 26.3494C26.1743 26.3494 28.2841 24.799 28.2955 22.395C28.3081 19.3442 23.9629 19.1753 23.9926 17.8116C24.0029 17.3981 24.4079 16.9569 25.2956 16.8447C25.735 16.788 26.9479 16.7446 28.323 17.3614L28.8627 14.9108C28.1232 14.6485 27.1727 14.3974 25.9894 14.3974C22.9541 14.3974 20.8193 15.969 20.8021 18.2183ZM34.0488 14.6085C33.46 14.6085 32.9637 14.943 32.7423 15.4564L28.1358 26.1694H31.3582L31.9995 24.4433H35.9372L36.3092 26.1694H39.1494L36.671 14.6085H34.0488ZM34.4996 17.7315L35.4296 22.0728H32.8827L34.4996 17.7315ZM16.8951 14.6086L14.355 26.1693H17.4257L19.9646 14.6083H16.8951M12.3524 14.6083L9.15628 22.4773L7.86339 15.7867C7.71169 15.0398 7.11259 14.6085 6.4473 14.6085H1.22259L1.14941 14.9442C2.22202 15.1709 3.4407 15.5365 4.17902 15.9278C4.63087 16.1668 4.75971 16.3757 4.90815 16.9436L7.35692 26.1694H10.6019L15.5769 14.6085L12.3524 14.6083Z" fill="url(#paint0_linear_849_965)"/>
</g>
<defs>
<linearGradient id="paint0_linear_849_965" x1="18.6195" y1="26.5892" x2="18.9565" y2="14.3138" gradientUnits="userSpaceOnUse">
<stop stop-color="#222357"/>
<stop offset="1" stop-color="#254AA5"/>
</linearGradient>
<clipPath id="clip0_849_965">
<rect width="38" height="12" fill="white" transform="translate(1.14941 14.3974)"/>
</clipPath>
</defs>
</svg>
