<svg width="25" height="25" viewBox="0 0 25 25" xmlns="http://www.w3.org/2000/svg">
<path d="M11.5895 6.92881C11.7895 7.12881 11.8855 7.37048 11.8775 7.65381C11.8689 7.93714 11.7645 8.17881 11.5645 8.37881L8.73953 11.2038L19.8895 11.2038C20.1729 11.2038 20.4105 11.2998 20.6025 11.4918C20.7939 11.6831 20.8895 11.9205 20.8895 12.2038C20.8895 12.4871 20.7939 12.7248 20.6025 12.9168C20.4105 13.1081 20.1729 13.2038 19.8895 13.2038L8.73953 13.2038L11.5895 16.0538C11.7895 16.2538 11.8895 16.4915 11.8895 16.7668C11.8895 17.0415 11.7895 17.2788 11.5895 17.4788C11.3895 17.6788 11.1519 17.7788 10.8765 17.7788C10.6019 17.7788 10.3645 17.6788 10.1645 17.4788L5.58953 12.9038C5.48953 12.8038 5.41853 12.6955 5.37653 12.5788C5.33519 12.4621 5.31453 12.3371 5.31453 12.2038C5.31453 12.0705 5.33519 11.9455 5.37653 11.8288C5.41853 11.7121 5.48953 11.6038 5.58953 11.5038L10.1895 6.90381C10.3729 6.72048 10.6019 6.62881 10.8765 6.62881C11.1519 6.62881 11.3895 6.72881 11.5895 6.92881Z"/>
</svg>
