<svg width="25" height="25" viewBox="0 0 25 25" xmlns="http://www.w3.org/2000/svg">
	<path d="M16,10.2c-1-1-2.1-1.4-3.5-1.4S10,9.2,9,10.2c-1,0.9-1.4,2.1-1.4,3.5c0,1.4,0.5,2.5,1.4,3.5s2.1,1.4,3.5,1.4
		s2.5-0.5,3.5-1.4s1.4-2.1,1.4-3.5C17.4,12.3,16.9,11.1,16,10.2z M14.7,15.9c-0.6,0.6-1.3,0.9-2.2,0.9s-1.6-0.3-2.2-0.9
		c-0.6-0.6-0.9-1.3-0.9-2.2s0.3-1.6,0.9-2.2c0.6-0.6,1.3-0.9,2.2-0.9s1.6,0.3,2.2,0.9c0.6,0.6,0.9,1.4,0.9,2.2S15.3,15.3,14.7,15.9z
		 M16,10.2c-1-1-2.1-1.4-3.5-1.4S10,9.2,9,10.2c-1,0.9-1.4,2.1-1.4,3.5c0,1.4,0.5,2.5,1.4,3.5s2.1,1.4,3.5,1.4s2.5-0.5,3.5-1.4
		s1.4-2.1,1.4-3.5C17.4,12.3,16.9,11.1,16,10.2z M14.7,15.9c-0.6,0.6-1.3,0.9-2.2,0.9s-1.6-0.3-2.2-0.9c-0.6-0.6-0.9-1.3-0.9-2.2
		s0.3-1.6,0.9-2.2c0.6-0.6,1.3-0.9,2.2-0.9s1.6,0.3,2.2,0.9c0.6,0.6,0.9,1.4,0.9,2.2S15.3,15.3,14.7,15.9z M16,10.2
		c-1-1-2.1-1.4-3.5-1.4S10,9.2,9,10.2c-1,0.9-1.4,2.1-1.4,3.5c0,1.4,0.5,2.5,1.4,3.5s2.1,1.4,3.5,1.4s2.5-0.5,3.5-1.4
		s1.4-2.1,1.4-3.5C17.4,12.3,16.9,11.1,16,10.2z M14.7,15.9c-0.6,0.6-1.3,0.9-2.2,0.9s-1.6-0.3-2.2-0.9c-0.6-0.6-0.9-1.3-0.9-2.2
		s0.3-1.6,0.9-2.2c0.6-0.6,1.3-0.9,2.2-0.9s1.6,0.3,2.2,0.9c0.6,0.6,0.9,1.4,0.9,2.2S15.3,15.3,14.7,15.9z M16,10.2
		c-1-1-2.1-1.4-3.5-1.4S10,9.2,9,10.2c-1,0.9-1.4,2.1-1.4,3.5c0,1.4,0.5,2.5,1.4,3.5s2.1,1.4,3.5,1.4s2.5-0.5,3.5-1.4
		s1.4-2.1,1.4-3.5C17.4,12.3,16.9,11.1,16,10.2z M14.7,15.9c-0.6,0.6-1.3,0.9-2.2,0.9s-1.6-0.3-2.2-0.9c-0.6-0.6-0.9-1.3-0.9-2.2
		s0.3-1.6,0.9-2.2c0.6-0.6,1.3-0.9,2.2-0.9s1.6,0.3,2.2,0.9c0.6,0.6,0.9,1.4,0.9,2.2S15.3,15.3,14.7,15.9z M16,10.2
		c-1-1-2.1-1.4-3.5-1.4S10,9.2,9,10.2c-1,0.9-1.4,2.1-1.4,3.5c0,1.4,0.5,2.5,1.4,3.5s2.1,1.4,3.5,1.4s2.5-0.5,3.5-1.4
		s1.4-2.1,1.4-3.5C17.4,12.3,16.9,11.1,16,10.2z M14.7,15.9c-0.6,0.6-1.3,0.9-2.2,0.9s-1.6-0.3-2.2-0.9c-0.6-0.6-0.9-1.3-0.9-2.2
		s0.3-1.6,0.9-2.2c0.6-0.6,1.3-0.9,2.2-0.9s1.6,0.3,2.2,0.9c0.6,0.6,0.9,1.4,0.9,2.2S15.3,15.3,14.7,15.9z M16,10.2
		c-1-1-2.1-1.4-3.5-1.4S10,9.2,9,10.2c-1,0.9-1.4,2.1-1.4,3.5c0,1.4,0.5,2.5,1.4,3.5s2.1,1.4,3.5,1.4s2.5-0.5,3.5-1.4
		s1.4-2.1,1.4-3.5C17.4,12.3,16.9,11.1,16,10.2z M14.7,15.9c-0.6,0.6-1.3,0.9-2.2,0.9s-1.6-0.3-2.2-0.9c-0.6-0.6-0.9-1.3-0.9-2.2
		s0.3-1.6,0.9-2.2c0.6-0.6,1.3-0.9,2.2-0.9s1.6,0.3,2.2,0.9c0.6,0.6,0.9,1.4,0.9,2.2S15.3,15.3,14.7,15.9z M16,10.2
		c-1-1-2.1-1.4-3.5-1.4S10,9.2,9,10.2c-1,0.9-1.4,2.1-1.4,3.5c0,1.4,0.5,2.5,1.4,3.5s2.1,1.4,3.5,1.4s2.5-0.5,3.5-1.4
		s1.4-2.1,1.4-3.5C17.4,12.3,16.9,11.1,16,10.2z M14.7,15.9c-0.6,0.6-1.3,0.9-2.2,0.9s-1.6-0.3-2.2-0.9c-0.6-0.6-0.9-1.3-0.9-2.2
		s0.3-1.6,0.9-2.2c0.6-0.6,1.3-0.9,2.2-0.9s1.6,0.3,2.2,0.9c0.6,0.6,0.9,1.4,0.9,2.2S15.3,15.3,14.7,15.9z M16,10.2
		c-1-1-2.1-1.4-3.5-1.4S10,9.2,9,10.2c-1,0.9-1.4,2.1-1.4,3.5c0,1.4,0.5,2.5,1.4,3.5s2.1,1.4,3.5,1.4s2.5-0.5,3.5-1.4
		s1.4-2.1,1.4-3.5C17.4,12.3,16.9,11.1,16,10.2z M14.7,15.9c-0.6,0.6-1.3,0.9-2.2,0.9s-1.6-0.3-2.2-0.9c-0.6-0.6-0.9-1.3-0.9-2.2
		s0.3-1.6,0.9-2.2c0.6-0.6,1.3-0.9,2.2-0.9s1.6,0.3,2.2,0.9c0.6,0.6,0.9,1.4,0.9,2.2S15.3,15.3,14.7,15.9z M16,10.2
		c-1-1-2.1-1.4-3.5-1.4S10,9.2,9,10.2c-1,0.9-1.4,2.1-1.4,3.5c0,1.4,0.5,2.5,1.4,3.5s2.1,1.4,3.5,1.4s2.5-0.5,3.5-1.4
		s1.4-2.1,1.4-3.5C17.4,12.3,16.9,11.1,16,10.2z M14.7,15.9c-0.6,0.6-1.3,0.9-2.2,0.9s-1.6-0.3-2.2-0.9c-0.6-0.6-0.9-1.3-0.9-2.2
		s0.3-1.6,0.9-2.2c0.6-0.6,1.3-0.9,2.2-0.9s1.6,0.3,2.2,0.9c0.6,0.6,0.9,1.4,0.9,2.2S15.3,15.3,14.7,15.9z M23.1,5.3
		c-0.4-0.4-0.9-0.6-1.4-0.6H18l-2.1-2.3H9.2L7,4.7H3.3c-0.6,0-1,0.2-1.5,0.6C1.4,5.7,1.2,6.2,1.2,6.8v13.8c0,0.6,0.2,1.1,0.6,1.5
		c0.4,0.4,0.9,0.6,1.5,0.6h18.4c0.6,0,1-0.2,1.4-0.6c0.4-0.4,0.6-0.9,0.6-1.5V6.8C23.8,6.2,23.6,5.7,23.1,5.3z M22,20.8H3V6.5h4.8
		l2.1-2.3h5.1l2.1,2.3H22V20.8z M12.5,8.7c-1.4,0-2.5,0.5-3.5,1.4c-1,0.9-1.4,2.1-1.4,3.5c0,1.4,0.5,2.5,1.4,3.5s2.1,1.4,3.5,1.4
		s2.5-0.5,3.5-1.4s1.4-2.1,1.4-3.5c0-1.4-0.5-2.5-1.4-3.5C15,9.2,13.9,8.7,12.5,8.7z M14.7,15.9c-0.6,0.6-1.3,0.9-2.2,0.9
		s-1.6-0.3-2.2-0.9c-0.6-0.6-0.9-1.3-0.9-2.2s0.3-1.6,0.9-2.2c0.6-0.6,1.3-0.9,2.2-0.9s1.6,0.3,2.2,0.9c0.6,0.6,0.9,1.4,0.9,2.2
		S15.3,15.3,14.7,15.9z M16,10.2c-1-1-2.1-1.4-3.5-1.4S10,9.2,9,10.2c-1,0.9-1.4,2.1-1.4,3.5c0,1.4,0.5,2.5,1.4,3.5s2.1,1.4,3.5,1.4
		s2.5-0.5,3.5-1.4s1.4-2.1,1.4-3.5C17.4,12.3,16.9,11.1,16,10.2z M14.7,15.9c-0.6,0.6-1.3,0.9-2.2,0.9s-1.6-0.3-2.2-0.9
		c-0.6-0.6-0.9-1.3-0.9-2.2s0.3-1.6,0.9-2.2c0.6-0.6,1.3-0.9,2.2-0.9s1.6,0.3,2.2,0.9c0.6,0.6,0.9,1.4,0.9,2.2S15.3,15.3,14.7,15.9z
		 M16,10.2c-1-1-2.1-1.4-3.5-1.4S10,9.2,9,10.2c-1,0.9-1.4,2.1-1.4,3.5c0,1.4,0.5,2.5,1.4,3.5s2.1,1.4,3.5,1.4s2.5-0.5,3.5-1.4
		s1.4-2.1,1.4-3.5C17.4,12.3,16.9,11.1,16,10.2z M14.7,15.9c-0.6,0.6-1.3,0.9-2.2,0.9s-1.6-0.3-2.2-0.9c-0.6-0.6-0.9-1.3-0.9-2.2
		s0.3-1.6,0.9-2.2c0.6-0.6,1.3-0.9,2.2-0.9s1.6,0.3,2.2,0.9c0.6,0.6,0.9,1.4,0.9,2.2S15.3,15.3,14.7,15.9z M16,10.2
		c-1-1-2.1-1.4-3.5-1.4S10,9.2,9,10.2c-1,0.9-1.4,2.1-1.4,3.5c0,1.4,0.5,2.5,1.4,3.5s2.1,1.4,3.5,1.4s2.5-0.5,3.5-1.4
		s1.4-2.1,1.4-3.5C17.4,12.3,16.9,11.1,16,10.2z M14.7,15.9c-0.6,0.6-1.3,0.9-2.2,0.9s-1.6-0.3-2.2-0.9c-0.6-0.6-0.9-1.3-0.9-2.2
		s0.3-1.6,0.9-2.2c0.6-0.6,1.3-0.9,2.2-0.9s1.6,0.3,2.2,0.9c0.6,0.6,0.9,1.4,0.9,2.2S15.3,15.3,14.7,15.9z M16,10.2
		c-1-1-2.1-1.4-3.5-1.4S10,9.2,9,10.2c-1,0.9-1.4,2.1-1.4,3.5c0,1.4,0.5,2.5,1.4,3.5s2.1,1.4,3.5,1.4s2.5-0.5,3.5-1.4
		s1.4-2.1,1.4-3.5C17.4,12.3,16.9,11.1,16,10.2z M14.7,15.9c-0.6,0.6-1.3,0.9-2.2,0.9s-1.6-0.3-2.2-0.9c-0.6-0.6-0.9-1.3-0.9-2.2
		s0.3-1.6,0.9-2.2c0.6-0.6,1.3-0.9,2.2-0.9s1.6,0.3,2.2,0.9c0.6,0.6,0.9,1.4,0.9,2.2S15.3,15.3,14.7,15.9z M16,10.2
		c-1-1-2.1-1.4-3.5-1.4S10,9.2,9,10.2c-1,0.9-1.4,2.1-1.4,3.5c0,1.4,0.5,2.5,1.4,3.5s2.1,1.4,3.5,1.4s2.5-0.5,3.5-1.4
		s1.4-2.1,1.4-3.5C17.4,12.3,16.9,11.1,16,10.2z M14.7,15.9c-0.6,0.6-1.3,0.9-2.2,0.9s-1.6-0.3-2.2-0.9c-0.6-0.6-0.9-1.3-0.9-2.2
		s0.3-1.6,0.9-2.2c0.6-0.6,1.3-0.9,2.2-0.9s1.6,0.3,2.2,0.9c0.6,0.6,0.9,1.4,0.9,2.2S15.3,15.3,14.7,15.9z M16,10.2
		c-1-1-2.1-1.4-3.5-1.4S10,9.2,9,10.2c-1,0.9-1.4,2.1-1.4,3.5c0,1.4,0.5,2.5,1.4,3.5s2.1,1.4,3.5,1.4s2.5-0.5,3.5-1.4
		s1.4-2.1,1.4-3.5C17.4,12.3,16.9,11.1,16,10.2z M14.7,15.9c-0.6,0.6-1.3,0.9-2.2,0.9s-1.6-0.3-2.2-0.9c-0.6-0.6-0.9-1.3-0.9-2.2
		s0.3-1.6,0.9-2.2c0.6-0.6,1.3-0.9,2.2-0.9s1.6,0.3,2.2,0.9c0.6,0.6,0.9,1.4,0.9,2.2S15.3,15.3,14.7,15.9z M16,10.2
		c-1-1-2.1-1.4-3.5-1.4S10,9.2,9,10.2c-1,0.9-1.4,2.1-1.4,3.5c0,1.4,0.5,2.5,1.4,3.5s2.1,1.4,3.5,1.4s2.5-0.5,3.5-1.4
		s1.4-2.1,1.4-3.5C17.4,12.3,16.9,11.1,16,10.2z M14.7,15.9c-0.6,0.6-1.3,0.9-2.2,0.9s-1.6-0.3-2.2-0.9c-0.6-0.6-0.9-1.3-0.9-2.2
		s0.3-1.6,0.9-2.2c0.6-0.6,1.3-0.9,2.2-0.9s1.6,0.3,2.2,0.9c0.6,0.6,0.9,1.4,0.9,2.2S15.3,15.3,14.7,15.9z"/>
</svg>
