<svg width="25" height="25" viewBox="0 0 25 25" xmlns="http://www.w3.org/2000/svg">
<path d="M21.5,5h-18C3.1,5,2.7,5.2,2.4,5.4C2.2,5.7,2,6.1,2,6.5v12c0,0.4,0.2,0.8,0.4,1.1S3.1,20,3.5,20h18
	c0.4,0,0.8-0.2,1.1-0.4s0.4-0.7,0.4-1.1v-12c0-0.4-0.2-0.8-0.4-1.1C22.3,5.2,21.9,5,21.5,5z M21.5,6.5v2.3h-18V6.5H21.5z M21.5,18.5
	h-18v-8.2h18V18.5z M20,16.3c0,0.2-0.1,0.4-0.2,0.5c-0.1,0.1-0.3,0.2-0.5,0.2h-3c-0.2,0-0.4-0.1-0.5-0.2c-0.1-0.1-0.2-0.3-0.2-0.5
	c0-0.2,0.1-0.4,0.2-0.5c0.1-0.1,0.3-0.2,0.5-0.2h3c0.2,0,0.4,0.1,0.5,0.2C19.9,15.9,20,16.1,20,16.3z M14,16.3
	c0,0.2-0.1,0.4-0.2,0.5c-0.1,0.1-0.3,0.2-0.5,0.2h-1.5c-0.2,0-0.4-0.1-0.5-0.2c-0.1-0.1-0.2-0.3-0.2-0.5c0-0.2,0.1-0.4,0.2-0.5
	c0.1-0.1,0.3-0.2,0.5-0.2h1.5c0.2,0,0.4,0.1,0.5,0.2C13.9,15.9,14,16.1,14,16.3z"/>
</svg>
