<svg width="25" height="25" viewBox="0 0 25 25" xmlns="http://www.w3.org/2000/svg">
<path d="M7.98953 11.2543V13.8977H16.4683V11.2543C16.4683 10.3921 16.8861 9.62738 17.5281 9.14457V6.49612C17.5281 5.3281 16.5792 4.38138 15.4084 4.38138H9.04937C7.87862 4.38138 6.92969 5.3281 6.92969 6.49612V9.14457C7.57169 9.62738 7.98953 10.3921 7.98953 11.2543Z"/>
<path d="M20.7077 11.2543C20.7077 10.3784 19.9959 9.66824 19.118 9.66824C18.24 9.66824 17.5282 10.3784 17.5282 11.2543V14.9551H6.92977V11.2543C6.92977 10.3784 6.21797 9.66824 5.34001 9.66824C4.46204 9.66824 3.75024 10.3784 3.75024 11.2543C3.75024 11.9445 4.19307 12.5303 4.81009 12.7482V21.2993H6.92977V20.2419H17.5282V21.2993H19.6479V12.7482C20.2649 12.5303 20.7077 11.9445 20.7077 11.2543Z"/>
</svg>
