<svg width="25" height="25" viewBox="0 0 25 25" xmlns="http://www.w3.org/2000/svg">
	<path d="M12.2,9.5c0,0.4,0.3,0.8,0.8,0.8s0.8-0.3,0.8-0.8c0-0.6,0.4-1.2,1.4-1.2c1,0,1.9-0.4,2.6-1.1s1.1-1.6,1.1-2.6
		V4c0-0.4-0.3-0.8-0.8-0.8S17.2,3.6,17.2,4v0.6c0,0.6-0.2,1.1-0.6,1.5s-0.9,0.6-1.5,0.6C13.2,6.7,12.2,8.1,12.2,9.5z"/>
	<path d="M9,10.2c0.4,0,0.8-0.3,0.8-0.8V9c0-0.6,0.2-1.2,0.7-1.6c0.4-0.4,1-0.7,1.6-0.7c0.7,0,1.4-0.3,1.9-0.8
		s0.8-1.2,0.8-1.9V3.5c0-0.4-0.3-0.8-0.8-0.8s-0.8,0.3-0.8,0.8V4c0,0.3-0.1,0.7-0.4,0.9c-0.2,0.2-0.6,0.4-0.9,0.4
		c-1,0-1.9,0.4-2.7,1.1C8.6,7.1,8.2,8,8.2,9v0.5C8.2,9.9,8.6,10.2,9,10.2z"/>
	<path d="M21.8,11.7c-0.6-0.6-1.4-1-2.3-1h-2.1H17H4.6c-0.4,0-0.7,0.1-1,0.4c-0.3,0.3-0.4,0.6-0.4,1v3.4
		c0,1.8,0.7,3.5,2,4.8s3,2,4.8,2h2c1.8,0,3.5-0.7,4.8-2c0.9-0.9,1.4-1.9,1.7-3h1c0.9,0,1.7-0.3,2.3-1c0.6-0.6,1-1.4,1-2.3
		C22.7,13.1,22.4,12.3,21.8,11.7z M20.7,15.2c-0.3,0.3-0.8,0.5-1.2,0.5h-0.8c0-0.1,0-0.2,0-0.2v-3.2h0.8c0.5,0,0.9,0.2,1.2,0.5
		c0.3,0.3,0.5,0.8,0.5,1.2C21.2,14.5,21,14.9,20.7,15.2z"/>

</svg>
