<svg width="25" height="25" viewBox="0 0 25 25" xmlns="http://www.w3.org/2000/svg">
<path d="M6.63303 5.97062C6.52796 5.8607 6.38401 5.7963 6.23202 5.79122C6.08004 5.78614 5.93212 5.84079 5.81994 5.94346C5.70777 6.04613 5.64026 6.18865 5.6319 6.34049C5.62353 6.49232 5.67497 6.6414 5.77518 6.75577L7.171 8.28972C4.53203 9.9109 3.39793 12.4117 3.34704 12.5281C3.31483 12.6027 3.29822 12.6831 3.29822 12.7643C3.29822 12.8456 3.31483 12.926 3.34704 13.0006C3.36885 13.0515 3.98679 14.4182 5.35353 15.7922C7.17827 17.6097 9.48283 18.5766 12.02 18.5766C13.3235 18.5818 14.6136 18.3144 15.8076 17.7915L17.407 19.5508C17.4615 19.6103 17.5277 19.6579 17.6016 19.6904C17.6754 19.7229 17.7552 19.7398 17.8359 19.7398C17.981 19.7384 18.1206 19.6841 18.2285 19.5871C18.2857 19.5361 18.3321 19.4741 18.3649 19.4049C18.3978 19.3357 18.4164 19.2606 18.4198 19.184C18.4232 19.1075 18.4113 19.031 18.3846 18.9592C18.358 18.8873 18.3173 18.8215 18.2649 18.7656L6.63303 5.97062ZM10.0717 11.4885L13.1032 14.8181C12.7698 14.9954 12.3977 15.0878 12.02 15.0871C11.6007 15.0872 11.1892 14.974 10.829 14.7595C10.4688 14.5449 10.1732 14.237 9.97358 13.8683C9.77396 13.4996 9.67769 13.0838 9.69496 12.6649C9.71223 12.246 9.84239 11.8395 10.0717 11.4885ZM12.02 17.4134C9.78089 17.4134 7.82529 16.5992 6.21138 14.9926C5.54275 14.3371 4.97662 13.5847 4.53203 12.7607C4.87372 12.1209 5.97147 10.3253 7.97069 9.16937L9.27927 10.6088C8.77486 11.2575 8.51556 12.0634 8.54702 12.8845C8.57849 13.7056 8.89872 14.4893 9.45129 15.0974C10.0039 15.7056 10.7533 16.0993 11.5677 16.2091C12.382 16.3189 13.209 16.1378 13.9029 15.6977L14.9716 16.8755C14.0295 17.2359 13.0287 17.4183 12.02 17.4134ZM20.693 13.0006C20.6639 13.066 19.9297 14.6945 18.2649 16.1848C18.1581 16.2781 18.0213 16.3297 17.8795 16.3302C17.798 16.3312 17.7172 16.3141 17.6431 16.2801C17.5689 16.2462 17.5032 16.1963 17.4506 16.1339C17.3995 16.0771 17.3601 16.0108 17.3347 15.9388C17.3092 15.8668 17.2982 15.7904 17.3022 15.7141C17.3063 15.6379 17.3253 15.5631 17.3583 15.4942C17.3912 15.4253 17.4374 15.3635 17.4942 15.3124C18.3068 14.5835 18.9879 13.7204 19.508 12.7607C19.0622 11.9353 18.4962 11.1807 17.8287 10.5216C16.2147 8.9222 14.2591 8.10797 12.02 8.10797C11.5474 8.10607 11.0756 8.14498 10.6097 8.22429C10.4576 8.24752 10.3025 8.21032 10.1775 8.12065C10.0525 8.03098 9.96755 7.89597 9.94083 7.74448C9.92836 7.66905 9.93088 7.5919 9.94825 7.51745C9.96562 7.443 9.9975 7.3727 10.0421 7.31058C10.0866 7.24846 10.143 7.19573 10.208 7.15542C10.2729 7.11511 10.3452 7.088 10.4206 7.07565C10.9492 6.98758 11.4842 6.94381 12.02 6.94479C14.5572 6.94479 16.8618 7.91168 18.6865 9.72916C20.0532 11.1032 20.6712 12.4699 20.693 12.5281C20.7252 12.6027 20.7418 12.6831 20.7418 12.7643C20.7418 12.8456 20.7252 12.926 20.693 13.0006ZM12.4562 10.478C12.3808 10.4636 12.3089 10.4346 12.2447 10.3925C12.1805 10.3504 12.1252 10.2961 12.082 10.2326C11.9948 10.1045 11.962 9.9469 11.9909 9.79458C12.0199 9.64226 12.1081 9.50767 12.2363 9.42042C12.3644 9.33316 12.522 9.30039 12.6743 9.32931C13.4159 9.47435 14.0909 9.85475 14.5991 10.414C15.1073 10.9732 15.4215 11.6815 15.495 12.4336C15.5092 12.5868 15.4621 12.7394 15.364 12.8579C15.2659 12.9765 15.1248 13.0513 14.9716 13.066H14.9134C14.7695 13.0666 14.6307 13.0131 14.5243 12.9162C14.418 12.8193 14.3519 12.6859 14.3391 12.5426C14.2889 12.0418 14.0787 11.5704 13.7395 11.1985C13.4003 10.8266 12.9503 10.5739 12.4562 10.478Z"/>
</svg>
