<svg width="25" height="25" viewBox="0 0 25 25" xmlns="http://www.w3.org/2000/svg">
<path d="M6.729 21.8403V3.84033H13.729C15.3957 3.84033 16.8123 4.42367 17.979 5.59033C19.1457 6.757 19.729 8.17367 19.729 9.84033C19.729 11.507 19.1457 12.9237 17.979 14.0903C16.8123 15.257 15.3957 15.8403 13.729 15.8403H10.729V21.8403H6.729ZM10.729 11.8403H13.929C14.479 11.8403 14.95 11.6443 15.342 11.2523C15.7333 10.861 15.929 10.3903 15.929 9.84033C15.929 9.29033 15.7333 8.81933 15.342 8.42733C14.95 8.036 14.479 7.84033 13.929 7.84033H10.729V11.8403Z"/>
</svg>
