<svg width="25" height="25" viewBox="0 0 25 25" xmlns="http://www.w3.org/2000/svg">
<path d="M3.3,7.7C3.3,15,9.3,21,16.7,21c1.2,0,2.4-0.5,3.4-1.3c0.9-0.8,1.5-2,1.7-3.2c0-0.3,0-0.6-0.2-0.8
	c-0.1-0.3-0.4-0.5-0.6-0.6l-4.4-1.9c-0.2-0.1-0.4-0.1-0.7-0.1c-0.2,0-0.4,0.1-0.6,0.2L12.8,15l-0.1,0c-1.5-0.7-2.7-1.9-3.4-3.3
	l0-0.1L11,9.1c0.1-0.2,0.2-0.4,0.2-0.6s0-0.4-0.1-0.7L9.2,3.4C9.1,3.1,8.9,2.9,8.6,2.8C8.4,2.6,8.2,2.6,7.9,2.6c-0.1,0-0.1,0-0.2,0
	C6.6,2.8,5.4,3.4,4.6,4.3C3.8,5.2,3.3,6.4,3.3,7.7z M7.9,3.8l0.1,0l2,4.6l-1.6,2.4c-0.1,0.2-0.2,0.4-0.2,0.7s0,0.5,0.1,0.7
	c0.8,1.7,2.2,3.1,3.9,3.9c0.2,0.1,0.4,0.1,0.7,0.1c0.2,0,0.5-0.1,0.6-0.2l2.4-1.6l0.1,0l4.5,1.9l0,0.1c-0.1,0.9-0.6,1.8-1.3,2.4
	c-0.7,0.6-1.6,1-2.6,1c-3.2,0-6.3-1.3-8.6-3.6c-2.3-2.3-3.6-5.3-3.6-8.6c0-0.9,0.3-1.9,1-2.6C6.1,4.4,7,3.9,7.9,3.8z"/>
</svg>
