<svg width="25" height="25" viewBox="0 0 25 25" xmlns="http://www.w3.org/2000/svg">
<path d="M20.7,16.9c-0.5-0.6-1.2-1.2-2-1.7c-1.8-1.1-4-1.7-6.2-1.7s-4.4,0.6-6.2,1.7c-0.8,0.5-1.5,1.1-2,1.7
	c-0.6,0.7-0.8,1.5-0.8,2.1c0,0.8,0.3,1.5,1,2c0,0,0,0,0,0l0.3,0.2l0,0c0.5,0.3,1,0.5,1.7,0.7c1.4,0.4,3.3,0.5,5.9,0.5
	s4.5-0.2,5.9-0.5c0.7-0.2,1.3-0.4,1.7-0.7l0,0l0.3-0.2c0,0,0,0,0,0c0.7-0.5,1-1.2,1-2C21.5,18.3,21.2,17.6,20.7,16.9z M19.6,19.3
	c-0.1,0.1-0.2,0.2-0.3,0.2c0,0,0,0,0,0l-0.3,0.2l0,0c-0.4,0.2-0.9,0.4-1.5,0.6c-1.2,0.3-2.9,0.4-5.1,0.4s-3.8-0.1-5.1-0.4
	C6.8,20.1,6.3,20,6,19.7l0,0l-0.3-0.2c0,0,0,0,0,0c-0.1-0.1-0.2-0.1-0.3-0.2c-0.1-0.1-0.1-0.2-0.1-0.3c0-0.3,0.2-0.7,0.5-1
	c0.3-0.4,0.9-0.9,1.5-1.3c1.5-0.9,3.4-1.4,5.2-1.4s3.8,0.5,5.2,1.4c0.6,0.4,1.2,0.8,1.5,1.3c0.3,0.4,0.5,0.7,0.5,1
	C19.7,19.1,19.7,19.2,19.6,19.3z"/>
<path d="M16,4c-0.9-1-2.2-1.5-3.5-1.5C11.2,2.5,9.9,3,9,4C8,4.9,7.5,6.2,7.5,7.5C7.5,8.8,8,10.1,9,11
	c1,0.9,2.2,1.5,3.5,1.5c1.3,0,2.6-0.5,3.5-1.5c0.9-1,1.5-2.2,1.5-3.5C17.5,6.2,17,4.9,16,4z M14.8,9.8c-1.2,1.2-3.3,1.2-4.5,0
	C9.6,9.2,9.3,8.4,9.3,7.5c0-0.8,0.3-1.7,0.9-2.3c0.6-0.6,1.4-0.9,2.3-0.9c0.9,0,1.7,0.3,2.3,0.9c0.6,0.6,0.9,1.4,0.9,2.3
	C15.7,8.4,15.4,9.2,14.8,9.8z"/>
</svg>
