<?xml version="1.0" standalone="no"?>
<!DOCTYPE svg PUBLIC "-//W3C//DTD SVG 1.1//EN" "http://www.w3.org/Graphics/SVG/1.1/DTD/svg11.dtd" >
<svg xmlns="http://www.w3.org/2000/svg">
<metadata>Generated by IcoMoon</metadata>
<defs>
<font id="icoFont" horiz-adv-x="1024">
<font-face units-per-em="1024" ascent="877.8572825024438" descent="-146.14271749755622" />
<missing-glyph horiz-adv-x="1024" />
<glyph unicode="&#x20;" horiz-adv-x="256.25024437927664" d="" />
<glyph unicode="&#xe900;" glyph-name="menu" d="M937.984 634.624h-856.064c-20.48 0-40.96 16.384-40.96 40.96s16.384 40.96 40.96 40.96h856.064c20.48 0 40.96-16.384 40.96-40.96s-16.384-40.96-40.96-40.96zM937.984 311.040h-856.064c-20.48 0-40.96 16.384-40.96 40.96 0 20.48 16.384 40.96 40.96 40.96h856.064c20.48 0 40.96-16.384 40.96-40.96 0-20.48-16.384-40.96-40.96-40.96zM937.984-8.448h-856.064c-20.48 0-40.96 16.384-40.96 40.96 0 20.48 16.384 40.96 40.96 40.96h856.064c20.48 0 40.96-16.384 40.96-40.96s-16.384-40.96-40.96-40.96z" />
<glyph unicode="&#xe901;" glyph-name="close" d="M811.008 16.128c-12.288 0-24.576 4.096-36.864 16.384l-262.144 262.144-262.144-262.144c-20.48-20.48-53.248-20.48-73.728 0s-20.48 53.248 0 73.728l262.144 262.144-258.048 262.144c-20.48 16.384-20.48 49.152 0 69.632s53.248 20.48 73.728 0l262.144-262.144 262.144 262.144c20.48 20.48 53.248 20.48 73.728 0s20.48-53.248 0-73.728l-262.144-262.144 262.144-262.144c20.48-20.48 20.48-53.248 0-73.728-12.288-4.096-24.576-12.288-40.96-12.288z" />
<glyph unicode="&#xe902;" glyph-name="back" d="M474.706 580.196c8.192-8.192 12.124-18.091 11.796-29.696-0.352-11.605-4.628-21.504-12.82-29.696l-115.711-115.712h456.703c11.608 0 21.34-3.932 29.204-11.796 7.84-7.836 11.756-17.56 11.756-29.164s-3.916-21.34-11.756-29.204c-7.864-7.836-17.596-11.756-29.204-11.756h-456.703l116.735-116.736c8.192-8.192 12.288-17.928 12.288-29.204 0-11.252-4.096-20.972-12.288-29.164s-17.924-12.288-29.204-12.288c-11.248 0-20.972 4.096-29.164 12.288l-187.391 187.392c-4.096 4.096-7.004 8.532-8.724 13.312-1.693 4.78-2.54 9.9-2.54 15.36s0.846 10.58 2.54 15.36c1.72 4.78 4.628 9.216 8.724 13.312l188.415 188.416c7.512 7.509 16.892 11.264 28.14 11.264 11.28 0 21.012-4.096 29.204-12.288z" />
<glyph unicode="&#xe903;" glyph-name="forward" d="M598.016 147.2c-8.192 8.192-12.288 16.384-12.288 28.672s4.096 20.48 12.288 28.672l114.688 114.688h-454.656c-12.288 0-20.48 4.096-28.672 12.288s-12.288 16.384-12.288 28.672c0 12.288 4.096 20.48 12.288 28.672s16.384 12.288 28.672 12.288h454.656l-114.688 118.784c-8.192 8.192-12.288 16.384-12.288 28.672s4.096 20.48 12.288 28.672c8.192 8.192 16.384 12.288 28.672 12.288s20.48-4.096 28.672-12.288l188.416-188.416c4.096-4.096 8.192-8.192 8.192-12.288s4.096-8.192 4.096-16.384 0-12.288-4.096-16.384c0-4.096-4.096-8.192-8.192-12.288l-188.416-184.32c-8.192-8.192-16.384-12.288-28.672-12.288-8.192 0-20.48 4.096-28.672 12.288z" />
<glyph unicode="&#xe904;" glyph-name="left" d="M667.562-57.44c10.559-10.559 23.998-16.318 39.838-16.318 31.678 0 57.119 24.957 57.119 56.639 0 15.839-6.717 30.241-17.76 41.279l-335.999 328.319 335.999 327.361c11.043 11.040 17.76 25.92 17.76 41.28 0 31.68-25.44 56.64-57.119 56.64-15.839 0-29.278-5.76-39.838-16.32l-373.442-364.802c-13.44-12.476-19.68-27.836-20.16-44.638 0-16.802 6.72-31.199 20.16-44.159l373.442-365.281z" />
<glyph unicode="&#xe905;" glyph-name="right" d="M745.472 306.944c12.288 12.288 20.48 28.672 20.48 45.056s-8.192 32.768-20.48 45.056l-372.736 364.544c-12.288 12.288-24.576 16.384-40.96 16.384-32.768 0-57.344-24.576-57.344-57.344 0-16.384 8.192-28.672 16.384-40.96l335.872-327.68-335.872-327.68c-12.288-12.288-16.384-24.576-16.384-40.96 0-32.768 24.576-57.344 57.344-57.344 16.384 0 28.672 4.096 40.96 16.384l372.736 364.544z" />
<glyph unicode="&#xe906;" glyph-name="minus" d="M773.779 292.080h-491.52c-10.863 0-21.282 4.317-28.963 11.997s-11.997 18.1-11.997 28.963c0 10.863 4.316 21.283 11.997 28.963 7.681 7.684 18.1 11.997 28.963 11.997h491.52c10.863 0 21.283-4.313 28.963-11.997 7.684-7.68 11.997-18.1 11.997-28.963s-4.313-21.283-11.997-28.963c-7.68-7.68-18.1-11.997-28.963-11.997z" />
<glyph unicode="&#xe907;" glyph-name="plus" d="M756.462 295.946h-204.8v-204.8c0-10.863-4.317-21.279-11.997-28.963-7.684-7.68-18.1-11.997-28.963-11.997-10.867 0-21.283 4.317-28.963 11.997-7.684 7.684-11.997 18.1-11.997 28.963v204.8h-204.802c-10.863 0-21.282 4.317-28.963 11.997-7.682 7.684-11.997 18.1-11.997 28.963s4.316 21.283 11.997 28.963c7.681 7.684 18.1 11.997 28.963 11.997h204.802v204.801c0 10.863 4.313 21.282 11.997 28.963 7.68 7.681 18.096 11.997 28.963 11.997 10.863 0 21.279-4.316 28.963-11.997 7.68-7.682 11.997-18.1 11.997-28.963v-204.801h204.8c10.863 0 21.279-4.313 28.963-11.997 7.68-7.68 11.997-18.1 11.997-28.963s-4.317-21.279-11.997-28.963c-7.684-7.68-18.1-11.997-28.963-11.997z" />
<glyph unicode="&#xe908;" glyph-name="check" d="M400.46 254.904l327.461 327.461c10.179 10.176 23.126 15.263 38.855 15.263 15.725 0 28.672-5.088 38.851-15.263 10.174-10.175 15.262-23.126 15.262-38.851s-5.087-28.676-15.262-38.851l-366.313-366.314c-11.1-11.1-24.052-16.65-38.853-16.65s-27.751 5.55-38.851 16.65l-144.305 144.306c-10.175 10.174-15.263 23.126-15.263 38.851s5.088 28.676 15.263 38.851c10.175 10.179 23.126 15.266 38.851 15.266s28.676-5.087 38.851-15.266l105.454-105.452z" />
<glyph unicode="&#xe909;" glyph-name="more" d="M574.718 592.48c0-33.932-27.508-61.44-61.44-61.44s-61.44 27.508-61.44 61.44c0 33.932 27.508 61.44 61.44 61.44s61.44-27.508 61.44-61.44zM574.718 371.62c0-33.932-27.508-61.44-61.44-61.44s-61.44 27.508-61.44 61.44c0 33.932 27.508 61.44 61.44 61.44s61.44-27.508 61.44-61.44zM574.718 150.759c0-33.932-27.508-61.44-61.44-61.44s-61.44 27.508-61.44 61.44c0 33.932 27.508 61.44 61.44 61.44s61.44-27.508 61.44-61.44z" />
<glyph unicode="&#xe910;" glyph-name="home" d="M868.352 536.32l-266.24 212.992c-24.576 20.48-53.248 28.672-81.92 28.672s-57.344-8.192-81.92-28.672l-270.336-212.992c-24.576-20.48-36.864-45.056-40.96-77.824v-356.352c0-77.824 61.44-139.264 143.36-139.264h77.824c28.672 0 49.152 20.48 49.152 49.152v126.976c0 32.768 24.576 57.344 57.344 57.344h114.688c32.768 0 57.344-24.576 57.344-57.344v-126.976c0-28.672 24.576-49.152 49.152-49.152h77.824c77.824 0 143.36 61.44 143.36 139.264v356.352c12.288 28.672-4.096 57.344-28.672 77.824zM827.392 102.144c0-32.768-28.672-57.344-61.44-57.344h-49.152v94.208c0 77.824-61.44 139.264-139.264 139.264h-114.688c-77.824 0-139.264-61.44-139.264-139.264v-94.208h-53.248c-32.768 0-61.44 24.576-61.44 57.344v352.256c0 4.096 4.096 12.288 8.192 16.384l274.432 217.088c8.192 8.192 16.384 12.288 28.672 12.288s20.48-4.096 28.672-12.288l270.336-217.088c4.096-4.096 8.192-8.192 8.192-16.384v-352.256z" />
<glyph unicode="&#xe911;" glyph-name="bookmark" d="M180.224 626.432c0 32.768 12.288 65.536 36.864 86.016s53.248 36.864 86.016 36.864h409.6c32.768 0 65.536-12.288 86.016-36.864 24.576-24.576 36.864-53.248 36.864-86.016v-655.36c0-49.152-57.344-77.824-98.304-49.152l-229.376 163.84-229.376-163.84c-40.96-28.672-98.304 0-98.304 49.152v655.36zM303.104 667.392c-12.288 0-20.48-4.096-28.672-12.288-4.096-8.192-12.288-20.48-12.288-28.672v-618.496l208.896 151.552c12.288 8.192 24.576 12.288 36.864 12.288s24.576-4.096 36.864-12.288l208.896-151.552v618.496c0 12.288-4.096 20.48-12.288 28.672s-16.384 12.288-28.672 12.288h-409.6z" />
<glyph unicode="&#xe912;" glyph-name="user" d="M847.872 171.776c-20.48 24.576-49.152 49.152-81.92 69.632-73.728 45.056-163.84 69.632-253.952 69.632s-180.224-24.576-253.952-69.632c-32.768-20.48-61.44-45.056-81.92-69.632-24.576-28.672-32.768-61.44-32.768-86.016 0-32.768 12.288-61.44 40.96-81.92 0 0 0 0 0 0l12.288-8.192c20.48-12.288 40.96-20.48 69.632-28.672 57.344-16.384 135.168-20.48 241.664-20.48s184.32 8.192 241.664 20.48c28.672 8.192 53.248 16.384 69.632 28.672v0l12.288 8.192c0 0 0 0 0 0 28.672 20.48 40.96 49.152 40.96 81.92 8.192 28.672-4.096 57.344-24.576 86.016zM802.816 73.472c-4.096-4.096-8.192-8.192-12.288-8.192 0 0 0 0 0 0l-12.288-8.192c-16.384-8.192-36.864-16.384-61.44-24.576-49.152-12.288-118.784-16.384-208.896-16.384s-155.648 4.096-208.896 16.384c-20.48 8.192-40.96 12.288-53.248 24.576v0l-12.288 8.192c0 0 0 0 0 0-4.096 4.096-8.192 4.096-12.288 8.192s-4.096 8.192-4.096 12.288c0 12.288 8.192 28.672 20.48 40.96 12.288 16.384 36.864 36.864 61.44 53.248 61.44 36.864 139.264 57.344 212.992 57.344s155.648-20.48 212.992-57.344c24.576-16.384 49.152-32.768 61.44-53.248 12.288-16.384 20.48-28.672 20.48-40.96 0-4.096 0-8.192-4.096-12.288zM655.36 700.16c-36.864 40.96-90.112 61.44-143.36 61.44s-106.496-20.48-143.36-61.44c-40.96-36.864-61.44-90.112-61.44-143.36s20.48-106.496 61.44-143.36c40.96-36.864 90.112-61.44 143.36-61.44s106.496 20.48 143.36 61.44c36.864 40.96 61.44 90.112 61.44 143.36s-20.48 106.496-61.44 143.36zM606.208 462.592c-49.152-49.152-135.168-49.152-184.32 0-28.672 24.576-40.96 57.344-40.96 94.208 0 32.768 12.288 69.632 36.864 94.208s57.344 36.864 94.208 36.864c36.864 0 69.632-12.288 94.208-36.864s36.864-57.344 36.864-94.208c0-36.864-12.288-69.632-36.864-94.208z" />
<glyph unicode="&#xe913;" glyph-name="calendar" d="M843.776 687.872c-12.288 12.288-24.576 16.384-40.96 16.384h-94.208v32.768c0 8.192-4.096 16.384-8.192 20.48-12.288 12.288-28.672 12.288-40.96 0-4.096-4.096-8.192-12.288-8.192-20.48v-32.768h-315.392v32.768c0 8.192-4.096 16.384-8.192 20.48-12.288 12.288-28.672 12.288-40.96 0-4.096-4.096-8.192-12.288-8.192-20.48v-32.768h-94.208c-16.384 0-32.768-8.192-40.96-16.384-12.288-12.288-16.384-24.576-16.384-40.96v-614.4c0-16.384 8.192-32.768 16.384-40.96 12.288-12.288 24.576-16.384 40.96-16.384h614.4c16.384 0 32.768 8.192 40.96 16.384s16.384 24.576 16.384 40.96v614.4c4.096 16.384-4.096 28.672-12.288 40.96zM802.816 462.592v-434.176c0 0 0 0 0 0h-614.4v434.176h614.4zM286.72 593.664c12.288-12.288 28.672-12.288 40.96 0 4.096 4.096 8.192 12.288 8.192 20.48v32.768h311.296v-32.768c0-8.192 4.096-16.384 8.192-20.48 12.288-12.288 28.672-12.288 40.96 0 4.096 4.096 8.192 12.288 8.192 20.48v32.768h94.208v-122.88h-614.4v126.976c0 0 0 0 0 0h94.208v-32.768c0-12.288 4.096-16.384 8.192-24.576z" />
<glyph unicode="&#xe914;" glyph-name="group" d="M839.68-20.736h-671.744c-12.288 0-24.576 12.288-24.576 24.576v36.864c0 135.168 110.592 249.856 249.856 249.856 40.96 0 77.824-8.192 110.592-24.576 32.768 16.384 73.728 24.576 110.592 24.576 135.168 0 249.856-110.592 249.856-249.856v-36.864c0-16.384-12.288-24.576-24.576-24.576zM638.976 28.416h176.128v12.288c0 110.592-90.112 200.704-200.704 200.704-20.48 0-40.96-4.096-61.44-8.192 53.248-45.056 86.016-114.688 86.016-188.416v-16.384zM192.512 28.416h397.312v12.288c0 110.592-90.112 200.704-200.704 200.704s-200.704-90.112-200.704-200.704v-12.288zM614.4 347.904c-40.96 0-81.92 16.384-110.592 40.96-28.672-24.576-69.632-40.96-110.592-40.96-94.208 0-172.032 77.824-172.032 172.032s77.824 172.032 172.032 172.032c40.96 0 81.92-16.384 110.592-40.96 32.768 24.576 69.632 40.96 110.592 40.96 94.208 0 172.032-77.824 172.032-172.032s-73.728-172.032-172.032-172.032zM536.576 425.728c20.48-16.384 49.152-28.672 77.824-28.672 69.632 0 122.88 57.344 122.88 122.88s-57.344 122.88-122.88 122.88c-28.672 0-57.344-8.192-77.824-28.672 16.384-28.672 28.672-61.44 28.672-94.208s-8.192-65.536-28.672-94.208zM393.216 646.912c-69.632 0-122.88-57.344-122.88-122.88s57.344-122.88 122.88-122.88 122.88 57.344 122.88 122.88-53.248 122.88-122.88 122.88z" />
<glyph unicode="&#xe915;" glyph-name="service" d="M61.44 48.896h892.928v-61.44h-892.928v61.44zM561.152 622.336c-28.672 28.672-77.824 28.672-110.592 0-16.384-16.384-24.576-32.768-24.576-53.248v-24.576l-12.288-4.096c-90.112-20.48-163.84-65.536-225.28-139.264-57.344-73.728-86.016-155.648-86.016-249.856v-32.768h798.72v32.768c0 94.208-28.672 180.224-86.016 249.856-57.344 73.728-131.072 118.784-225.28 139.264l-12.288 4.096v24.576c4.096 20.48 0 40.96-16.384 53.248zM729.088 409.344c61.44-53.248 102.4-122.88 110.592-208.896l4.096-16.384h-675.84l4.096 16.384c12.288 81.92 49.152 151.552 114.688 208.896 61.44 53.248 139.264 81.92 221.184 81.92s159.744-24.576 221.184-81.92z" />
<glyph unicode="&#xe916;" glyph-name="wifi" d="M321.846 237.41l-74.163 75.928c34.727 34.73 75.493 62.239 122.299 82.534 46.782 20.32 97.249 30.478 151.398 30.478 54.153 0 104.628-10.301 151.433-30.9 46.785-20.603 87.54-48.562 122.266-83.878l-74.162-74.162c-25.899 25.899-55.919 46.203-90.055 60.92-34.14 14.713-70.636 22.073-109.482 22.073s-75.342-7.361-109.478-22.073c-34.139-14.717-64.158-35.021-90.056-60.92zM171.753 387.504l-74.163 74.161c54.151 55.328 117.425 98.59 189.823 129.786s150.388 46.794 233.967 46.794c83.583 0 161.571-15.598 233.968-46.794s135.672-74.457 189.825-129.786l-74.166-74.161c-45.322 45.318-97.845 80.789-157.577 106.405-59.757 25.592-123.773 38.388-192.049 38.388s-132.293-12.796-192.047-38.388c-59.731-25.616-112.257-61.087-157.579-106.405zM521.38 37.874l124.49 125.374c-15.892 15.888-34.435 28.406-55.624 37.54-21.189 9.11-44.143 13.668-68.866 13.668-24.719 0-47.677-4.559-68.866-13.668-21.189-9.134-39.731-21.651-55.622-37.54l124.488-125.374z" />
<glyph unicode="&#xe917;" glyph-name="parking" d="M275.62-30.579v737.279h286.72c68.268 0 126.292-23.894 174.080-71.68s71.68-105.814 71.68-174.080c0-68.267-23.892-126.295-71.68-174.079-47.788-47.788-105.812-71.68-174.080-71.68h-122.88v-245.76h-163.84zM439.46 379.021h131.072c22.528 0 41.82 8.028 57.876 24.084 16.028 16.028 24.044 35.308 24.044 57.834 0 22.528-8.016 41.82-24.044 57.876-16.056 16.029-35.348 24.044-57.876 24.044h-131.072v-163.839z" />
<glyph unicode="&#xe918;" glyph-name="drinks" d="M499.712 474.88c0-16.384 12.288-32.768 32.768-32.768s32.768 12.288 32.768 32.768c0 24.576 16.384 49.152 57.344 49.152s77.824 16.384 106.496 45.056 45.056 65.536 45.056 106.496v24.576c0 16.384-12.288 32.768-32.768 32.768s-36.864-16.384-36.864-32.768v-24.576c0-24.576-8.192-45.056-24.576-61.44s-36.864-24.576-61.44-24.576c-77.824 0-118.784-57.344-118.784-114.688zM368.64 446.208c16.384 0 32.768 12.288 32.768 32.768v16.384c0 24.576 8.192 49.152 28.672 65.536 16.384 16.384 40.96 28.672 65.536 28.672 28.672 0 57.344 12.288 77.824 32.768s32.768 49.152 32.768 77.824v20.48c0 16.384-12.288 32.768-32.768 32.768s-32.768-12.288-32.768-32.768v-20.48c0-12.288-4.096-28.672-16.384-36.864-8.192-8.192-24.576-16.384-36.864-16.384-40.96 0-77.824-16.384-110.592-45.056-24.576-28.672-40.96-65.536-40.96-106.496v-20.48c0-16.384 16.384-28.672 32.768-28.672zM892.928 384.768c-24.576 24.576-57.344 40.96-94.208 40.96h-610.304c-16.384 0-28.672-4.096-40.96-16.384s-16.384-24.576-16.384-40.96v-139.264c0-73.728 28.672-143.36 81.92-196.608s122.88-81.92 196.608-81.92h81.92c73.728 0 143.36 28.672 196.608 81.92 36.864 36.864 57.344 77.824 69.632 122.88h40.96c36.864 0 69.632 12.288 94.208 40.96 24.576 24.576 40.96 57.344 40.96 94.208-4.096 36.864-16.384 69.632-40.96 94.208zM847.872 241.408c-12.288-12.288-32.768-20.48-49.152-20.48h-32.768c0 4.096 0 8.192 0 8.192v131.072h32.768c20.48 0 36.864-8.192 49.152-20.48s20.48-32.768 20.48-49.152c0-20.48-8.192-36.864-20.48-49.152z" />
<glyph unicode="&#xe919;" glyph-name="chair" d="M327.251 403.024v-108.274h347.29v108.274c0 35.316 17.113 66.639 43.409 86.415v108.481c0 47.842-38.867 86.62-86.823 86.62h-260.466c-47.954 0-86.822-38.778-86.822-86.62v-108.481c26.296-19.776 43.411-51.099 43.411-86.415zM848.187 403.024c0 35.877-29.155 64.965-65.114 64.965-35.963 0-65.118-29.088-65.118-64.965v-151.585h-434.112v151.585c0 35.877-29.155 64.965-65.117 64.965s-65.117-29.088-65.117-64.965c0-28.271 18.138-52.265 43.411-61.19v-350.253h86.822v43.311h434.112v-43.311h86.823v350.253c25.272 8.925 43.409 32.92 43.409 61.19z" />
<glyph unicode="&#xe920;" glyph-name="card" d="M880.64 659.2h-737.28c-16.384 0-32.768-8.192-45.056-16.384-8.192-12.288-16.384-28.672-16.384-45.056v-491.52c0-16.384 8.192-32.768 16.384-45.056s28.672-16.384 45.056-16.384h737.28c16.384 0 32.768 8.192 45.056 16.384s16.384 28.672 16.384 45.056v491.52c0 16.384-8.192 32.768-16.384 45.056-12.288 8.192-28.672 16.384-45.056 16.384zM880.64 597.76v-94.208h-737.28v94.208h737.28zM880.64 106.24h-737.28v335.872h737.28v-335.872zM819.2 196.352c0-8.192-4.096-16.384-8.192-20.48s-12.288-8.192-20.48-8.192h-122.88c-8.192 0-16.384 4.096-20.48 8.192s-8.192 12.288-8.192 20.48c0 8.192 4.096 16.384 8.192 20.48s12.288 8.192 20.48 8.192h122.88c8.192 0 16.384-4.096 20.48-8.192s8.192-12.288 8.192-20.48zM573.44 196.352c0-8.192-4.096-16.384-8.192-20.48s-12.288-8.192-20.48-8.192h-61.44c-8.192 0-16.384 4.096-20.48 8.192s-8.192 12.288-8.192 20.48c0 8.192 4.096 16.384 8.192 20.48s12.288 8.192 20.48 8.192h61.44c8.192 0 16.384-4.096 20.48-8.192s8.192-12.288 8.192-20.48z" />
<glyph unicode="&#xe921;" glyph-name="camera" d="M655.36 446.208c-40.96 40.96-86.016 57.344-143.36 57.344s-102.4-16.384-143.36-57.344c-40.96-36.864-57.344-86.016-57.344-143.36s20.48-102.4 57.344-143.36 86.016-57.344 143.36-57.344 102.4 20.48 143.36 57.344 57.344 86.016 57.344 143.36c0 57.344-20.48 106.496-57.344 143.36zM602.112 212.736c-24.576-24.576-53.248-36.864-90.112-36.864s-65.536 12.288-90.112 36.864c-24.576 24.576-36.864 53.248-36.864 90.112s12.288 65.536 36.864 90.112c24.576 24.576 53.248 36.864 90.112 36.864s65.536-12.288 90.112-36.864c24.576-24.576 36.864-57.344 36.864-90.112s-12.288-65.536-36.864-90.112zM655.36 446.208c-40.96 40.96-86.016 57.344-143.36 57.344s-102.4-16.384-143.36-57.344c-40.96-36.864-57.344-86.016-57.344-143.36s20.48-102.4 57.344-143.36 86.016-57.344 143.36-57.344 102.4 20.48 143.36 57.344 57.344 86.016 57.344 143.36c0 57.344-20.48 106.496-57.344 143.36zM602.112 212.736c-24.576-24.576-53.248-36.864-90.112-36.864s-65.536 12.288-90.112 36.864c-24.576 24.576-36.864 53.248-36.864 90.112s12.288 65.536 36.864 90.112c24.576 24.576 53.248 36.864 90.112 36.864s65.536-12.288 90.112-36.864c24.576-24.576 36.864-57.344 36.864-90.112s-12.288-65.536-36.864-90.112zM655.36 446.208c-40.96 40.96-86.016 57.344-143.36 57.344s-102.4-16.384-143.36-57.344c-40.96-36.864-57.344-86.016-57.344-143.36s20.48-102.4 57.344-143.36 86.016-57.344 143.36-57.344 102.4 20.48 143.36 57.344 57.344 86.016 57.344 143.36c0 57.344-20.48 106.496-57.344 143.36zM602.112 212.736c-24.576-24.576-53.248-36.864-90.112-36.864s-65.536 12.288-90.112 36.864c-24.576 24.576-36.864 53.248-36.864 90.112s12.288 65.536 36.864 90.112c24.576 24.576 53.248 36.864 90.112 36.864s65.536-12.288 90.112-36.864c24.576-24.576 36.864-57.344 36.864-90.112s-12.288-65.536-36.864-90.112zM655.36 446.208c-40.96 40.96-86.016 57.344-143.36 57.344s-102.4-16.384-143.36-57.344c-40.96-36.864-57.344-86.016-57.344-143.36s20.48-102.4 57.344-143.36 86.016-57.344 143.36-57.344 102.4 20.48 143.36 57.344 57.344 86.016 57.344 143.36c0 57.344-20.48 106.496-57.344 143.36zM602.112 212.736c-24.576-24.576-53.248-36.864-90.112-36.864s-65.536 12.288-90.112 36.864c-24.576 24.576-36.864 53.248-36.864 90.112s12.288 65.536 36.864 90.112c24.576 24.576 53.248 36.864 90.112 36.864s65.536-12.288 90.112-36.864c24.576-24.576 36.864-57.344 36.864-90.112s-12.288-65.536-36.864-90.112zM655.36 446.208c-40.96 40.96-86.016 57.344-143.36 57.344s-102.4-16.384-143.36-57.344c-40.96-36.864-57.344-86.016-57.344-143.36s20.48-102.4 57.344-143.36 86.016-57.344 143.36-57.344 102.4 20.48 143.36 57.344 57.344 86.016 57.344 143.36c0 57.344-20.48 106.496-57.344 143.36zM602.112 212.736c-24.576-24.576-53.248-36.864-90.112-36.864s-65.536 12.288-90.112 36.864c-24.576 24.576-36.864 53.248-36.864 90.112s12.288 65.536 36.864 90.112c24.576 24.576 53.248 36.864 90.112 36.864s65.536-12.288 90.112-36.864c24.576-24.576 36.864-57.344 36.864-90.112s-12.288-65.536-36.864-90.112zM655.36 446.208c-40.96 40.96-86.016 57.344-143.36 57.344s-102.4-16.384-143.36-57.344c-40.96-36.864-57.344-86.016-57.344-143.36s20.48-102.4 57.344-143.36 86.016-57.344 143.36-57.344 102.4 20.48 143.36 57.344 57.344 86.016 57.344 143.36c0 57.344-20.48 106.496-57.344 143.36zM602.112 212.736c-24.576-24.576-53.248-36.864-90.112-36.864s-65.536 12.288-90.112 36.864c-24.576 24.576-36.864 53.248-36.864 90.112s12.288 65.536 36.864 90.112c24.576 24.576 53.248 36.864 90.112 36.864s65.536-12.288 90.112-36.864c24.576-24.576 36.864-57.344 36.864-90.112s-12.288-65.536-36.864-90.112zM655.36 446.208c-40.96 40.96-86.016 57.344-143.36 57.344s-102.4-16.384-143.36-57.344c-40.96-36.864-57.344-86.016-57.344-143.36s20.48-102.4 57.344-143.36 86.016-57.344 143.36-57.344 102.4 20.48 143.36 57.344 57.344 86.016 57.344 143.36c0 57.344-20.48 106.496-57.344 143.36zM602.112 212.736c-24.576-24.576-53.248-36.864-90.112-36.864s-65.536 12.288-90.112 36.864c-24.576 24.576-36.864 53.248-36.864 90.112s12.288 65.536 36.864 90.112c24.576 24.576 53.248 36.864 90.112 36.864s65.536-12.288 90.112-36.864c24.576-24.576 36.864-57.344 36.864-90.112s-12.288-65.536-36.864-90.112zM655.36 446.208c-40.96 40.96-86.016 57.344-143.36 57.344s-102.4-16.384-143.36-57.344c-40.96-36.864-57.344-86.016-57.344-143.36s20.48-102.4 57.344-143.36 86.016-57.344 143.36-57.344 102.4 20.48 143.36 57.344 57.344 86.016 57.344 143.36c0 57.344-20.48 106.496-57.344 143.36zM602.112 212.736c-24.576-24.576-53.248-36.864-90.112-36.864s-65.536 12.288-90.112 36.864c-24.576 24.576-36.864 53.248-36.864 90.112s12.288 65.536 36.864 90.112c24.576 24.576 53.248 36.864 90.112 36.864s65.536-12.288 90.112-36.864c24.576-24.576 36.864-57.344 36.864-90.112s-12.288-65.536-36.864-90.112zM655.36 446.208c-40.96 40.96-86.016 57.344-143.36 57.344s-102.4-16.384-143.36-57.344c-40.96-36.864-57.344-86.016-57.344-143.36s20.48-102.4 57.344-143.36 86.016-57.344 143.36-57.344 102.4 20.48 143.36 57.344 57.344 86.016 57.344 143.36c0 57.344-20.48 106.496-57.344 143.36zM602.112 212.736c-24.576-24.576-53.248-36.864-90.112-36.864s-65.536 12.288-90.112 36.864c-24.576 24.576-36.864 53.248-36.864 90.112s12.288 65.536 36.864 90.112c24.576 24.576 53.248 36.864 90.112 36.864s65.536-12.288 90.112-36.864c24.576-24.576 36.864-57.344 36.864-90.112s-12.288-65.536-36.864-90.112zM946.176 646.912c-16.384 16.384-36.864 24.576-57.344 24.576h-151.552l-86.016 94.208h-274.432l-90.112-94.208h-151.552c-24.576 0-40.96-8.192-61.44-24.576-16.384-16.384-24.576-36.864-24.576-61.44v-565.248c0-24.576 8.192-45.056 24.576-61.44s36.864-24.576 61.44-24.576h753.664c24.576 0 40.96 8.192 57.344 24.576s24.576 36.864 24.576 61.44v565.248c4.096 24.576-4.096 45.056-24.576 61.44zM901.12 12.032h-778.24v585.728h196.608l86.016 94.208h208.896l86.016-94.208h200.704v-585.728zM512 507.648c-57.344 0-102.4-20.48-143.36-57.344s-57.344-86.016-57.344-143.36c0-57.344 20.48-102.4 57.344-143.36s86.016-57.344 143.36-57.344 102.4 20.48 143.36 57.344 57.344 86.016 57.344 143.36c0 57.344-20.48 102.4-57.344 143.36-40.96 36.864-86.016 57.344-143.36 57.344zM602.112 212.736c-24.576-24.576-53.248-36.864-90.112-36.864s-65.536 12.288-90.112 36.864c-24.576 24.576-36.864 53.248-36.864 90.112s12.288 65.536 36.864 90.112c24.576 24.576 53.248 36.864 90.112 36.864s65.536-12.288 90.112-36.864c24.576-24.576 36.864-57.344 36.864-90.112s-12.288-65.536-36.864-90.112zM655.36 446.208c-40.96 40.96-86.016 57.344-143.36 57.344s-102.4-16.384-143.36-57.344c-40.96-36.864-57.344-86.016-57.344-143.36s20.48-102.4 57.344-143.36 86.016-57.344 143.36-57.344 102.4 20.48 143.36 57.344 57.344 86.016 57.344 143.36c0 57.344-20.48 106.496-57.344 143.36zM602.112 212.736c-24.576-24.576-53.248-36.864-90.112-36.864s-65.536 12.288-90.112 36.864c-24.576 24.576-36.864 53.248-36.864 90.112s12.288 65.536 36.864 90.112c24.576 24.576 53.248 36.864 90.112 36.864s65.536-12.288 90.112-36.864c24.576-24.576 36.864-57.344 36.864-90.112s-12.288-65.536-36.864-90.112zM655.36 446.208c-40.96 40.96-86.016 57.344-143.36 57.344s-102.4-16.384-143.36-57.344c-40.96-36.864-57.344-86.016-57.344-143.36s20.48-102.4 57.344-143.36 86.016-57.344 143.36-57.344 102.4 20.48 143.36 57.344 57.344 86.016 57.344 143.36c0 57.344-20.48 106.496-57.344 143.36zM602.112 212.736c-24.576-24.576-53.248-36.864-90.112-36.864s-65.536 12.288-90.112 36.864c-24.576 24.576-36.864 53.248-36.864 90.112s12.288 65.536 36.864 90.112c24.576 24.576 53.248 36.864 90.112 36.864s65.536-12.288 90.112-36.864c24.576-24.576 36.864-57.344 36.864-90.112s-12.288-65.536-36.864-90.112zM655.36 446.208c-40.96 40.96-86.016 57.344-143.36 57.344s-102.4-16.384-143.36-57.344c-40.96-36.864-57.344-86.016-57.344-143.36s20.48-102.4 57.344-143.36 86.016-57.344 143.36-57.344 102.4 20.48 143.36 57.344 57.344 86.016 57.344 143.36c0 57.344-20.48 106.496-57.344 143.36zM602.112 212.736c-24.576-24.576-53.248-36.864-90.112-36.864s-65.536 12.288-90.112 36.864c-24.576 24.576-36.864 53.248-36.864 90.112s12.288 65.536 36.864 90.112c24.576 24.576 53.248 36.864 90.112 36.864s65.536-12.288 90.112-36.864c24.576-24.576 36.864-57.344 36.864-90.112s-12.288-65.536-36.864-90.112zM655.36 446.208c-40.96 40.96-86.016 57.344-143.36 57.344s-102.4-16.384-143.36-57.344c-40.96-36.864-57.344-86.016-57.344-143.36s20.48-102.4 57.344-143.36 86.016-57.344 143.36-57.344 102.4 20.48 143.36 57.344 57.344 86.016 57.344 143.36c0 57.344-20.48 106.496-57.344 143.36zM602.112 212.736c-24.576-24.576-53.248-36.864-90.112-36.864s-65.536 12.288-90.112 36.864c-24.576 24.576-36.864 53.248-36.864 90.112s12.288 65.536 36.864 90.112c24.576 24.576 53.248 36.864 90.112 36.864s65.536-12.288 90.112-36.864c24.576-24.576 36.864-57.344 36.864-90.112s-12.288-65.536-36.864-90.112zM655.36 446.208c-40.96 40.96-86.016 57.344-143.36 57.344s-102.4-16.384-143.36-57.344c-40.96-36.864-57.344-86.016-57.344-143.36s20.48-102.4 57.344-143.36 86.016-57.344 143.36-57.344 102.4 20.48 143.36 57.344 57.344 86.016 57.344 143.36c0 57.344-20.48 106.496-57.344 143.36zM602.112 212.736c-24.576-24.576-53.248-36.864-90.112-36.864s-65.536 12.288-90.112 36.864c-24.576 24.576-36.864 53.248-36.864 90.112s12.288 65.536 36.864 90.112c24.576 24.576 53.248 36.864 90.112 36.864s65.536-12.288 90.112-36.864c24.576-24.576 36.864-57.344 36.864-90.112s-12.288-65.536-36.864-90.112zM655.36 446.208c-40.96 40.96-86.016 57.344-143.36 57.344s-102.4-16.384-143.36-57.344c-40.96-36.864-57.344-86.016-57.344-143.36s20.48-102.4 57.344-143.36 86.016-57.344 143.36-57.344 102.4 20.48 143.36 57.344 57.344 86.016 57.344 143.36c0 57.344-20.48 106.496-57.344 143.36zM602.112 212.736c-24.576-24.576-53.248-36.864-90.112-36.864s-65.536 12.288-90.112 36.864c-24.576 24.576-36.864 53.248-36.864 90.112s12.288 65.536 36.864 90.112c24.576 24.576 53.248 36.864 90.112 36.864s65.536-12.288 90.112-36.864c24.576-24.576 36.864-57.344 36.864-90.112s-12.288-65.536-36.864-90.112zM655.36 446.208c-40.96 40.96-86.016 57.344-143.36 57.344s-102.4-16.384-143.36-57.344c-40.96-36.864-57.344-86.016-57.344-143.36s20.48-102.4 57.344-143.36 86.016-57.344 143.36-57.344 102.4 20.48 143.36 57.344 57.344 86.016 57.344 143.36c0 57.344-20.48 106.496-57.344 143.36zM602.112 212.736c-24.576-24.576-53.248-36.864-90.112-36.864s-65.536 12.288-90.112 36.864c-24.576 24.576-36.864 53.248-36.864 90.112s12.288 65.536 36.864 90.112c24.576 24.576 53.248 36.864 90.112 36.864s65.536-12.288 90.112-36.864c24.576-24.576 36.864-57.344 36.864-90.112s-12.288-65.536-36.864-90.112z" />
<glyph unicode="&#xe922;" glyph-name="scan" d="M118.784 163.584v-200.704h245.76v65.536h-176.128v135.168zM831.488 163.584v-135.168h-176.128v-65.536h245.76v200.704zM118.784 384.768h782.336v-69.632h-782.336v69.632zM901.12 540.416v200.704h-245.76v-65.536h176.128v-135.168zM188.416 540.416v135.168h176.128v65.536h-245.76v-200.704z" />
<glyph unicode="&#xe923;" glyph-name="ticket" d="M950.272 36.608h-249.856v155.648h-61.44v-155.648h-569.344v188.416l20.48 4.096c24.576 4.096 49.152 16.384 69.632 36.864v0c24.576 24.576 36.864 57.344 36.864 90.112s-12.288 65.536-36.864 90.112c-20.48 20.48-40.96 28.672-69.632 36.864l-20.48-4.096v188.416h565.248v-155.648h61.44v155.648h249.856v-188.416l-20.48-4.096c-24.576-4.096-49.152-16.384-69.632-36.864-24.576-24.576-36.864-57.344-36.864-90.112s12.288-65.536 36.864-90.112c20.48-20.48 40.96-28.672 69.632-36.864l20.48-4.096v-180.224zM749.568 89.856h151.552v94.208c-28.672 8.192-53.248 24.576-73.728 45.056-32.768 32.768-53.248 77.824-53.248 122.88s16.384 90.112 53.248 122.88c20.48 20.48 45.056 36.864 73.728 45.056v98.304h-151.552v-528.384zM122.88 89.856h466.944v528.384h-466.944v-94.208c28.672-8.192 53.248-24.576 73.728-45.056 32.768-32.768 53.248-77.824 53.248-122.88 0-36.864-12.288-73.728-36.864-106.496v0l-16.384-16.384c0 0 0 0 0 0l-16.384-24.576c-16.384-12.288-36.864-20.48-53.248-28.672v-90.112zM638.976 257.792h61.44v188.416h-61.44v-188.416z" />
<glyph unicode="&#xe924;" glyph-name="location" d="M512 519.936c-24.576 0-40.96-8.192-57.344-24.576s-24.576-36.864-24.576-57.344 8.192-40.96 24.576-57.344c16.384-16.384 36.864-24.576 57.344-24.576s40.96 8.192 57.344 24.576c16.384 16.384 24.576 32.768 24.576 57.344s-8.192 40.96-24.576 57.344c-16.384 16.384-36.864 24.576-57.344 24.576zM512 790.272c-90.112 0-172.032-32.768-245.76-98.304-69.632-65.536-102.4-151.552-102.4-262.144 0-73.728 28.672-151.552 86.016-237.568s147.456-180.224 262.144-278.528c114.688 98.304 204.8 192.512 262.144 278.528s86.016 163.84 86.016 237.568c0 110.592-36.864 196.608-106.496 262.144s-151.552 98.304-241.664 98.304zM720.896 245.504c-45.056-69.632-110.592-143.36-204.8-229.376l-4.096-4.096-4.096 4.096c-90.112 81.92-159.744 159.744-204.8 229.376s-65.536 131.072-65.536 184.32c0 81.92 28.672 151.552 77.824 204.8 53.248 53.248 118.784 77.824 196.608 77.824s143.36-28.672 196.608-77.824c53.248-53.248 81.92-122.88 81.92-204.8-4.096-53.248-24.576-114.688-69.632-184.32z" />
<glyph unicode="&#xe925;" glyph-name="share" d="M743.821-41.871c-34.136 0-63.148 11.948-87.040 35.84-23.896 23.896-35.84 52.908-35.84 87.040 0 4.78 0.34 9.736 1.024 14.868 0.68 5.108 1.704 9.708 3.072 13.804l-288.769 167.936c-11.606-10.24-24.576-18.252-38.912-24.044-14.336-5.816-29.355-8.724-45.056-8.724-34.134 0-63.147 11.948-87.040 35.84-23.894 23.896-35.84 52.908-35.84 87.040 0 34.136 11.946 63.148 35.84 87.041s52.906 35.84 87.040 35.84c15.701 0 30.72-2.894 45.056-8.684 14.336-5.816 27.306-13.844 38.912-24.084l288.769 167.936c-1.368 4.096-2.392 8.697-3.072 13.804-0.684 5.134-1.024 10.090-1.024 14.868 0 34.134 11.944 63.147 35.84 87.040 23.892 23.894 52.904 35.84 87.040 35.84 34.132 0 63.144-11.946 87.040-35.84 23.892-23.893 35.84-52.906 35.84-87.040s-11.948-63.146-35.84-87.040c-23.896-23.893-52.908-35.84-87.040-35.84-15.704 0-30.72 2.908-45.056 8.724-14.336 5.789-27.308 13.804-38.912 24.044l-288.769-167.937c1.365-4.096 2.389-8.696 3.072-13.804 0.683-5.132 1.024-10.088 1.024-14.868 0-4.776-0.341-9.72-1.024-14.828-0.683-5.132-1.707-9.748-3.072-13.844l288.769-167.936c11.604 10.24 24.576 18.268 38.912 24.084 14.336 5.792 29.352 8.684 45.056 8.684 34.132 0 63.144-11.944 87.040-35.84 23.892-23.892 35.84-52.904 35.84-87.040 0-34.132-11.948-63.144-35.84-87.040-23.896-23.892-52.908-35.84-87.040-35.84z" />
<glyph unicode="&#xe926;" glyph-name="logout" d="M393.216-41.216h-163.84c-32.768 0-65.536 12.288-86.016 36.864-24.576 24.576-36.864 53.248-36.864 86.016v573.44c0 32.768 12.288 65.536 36.864 86.016 24.576 24.576 53.248 36.864 86.016 36.864h163.84c24.576 0 40.96-16.384 40.96-40.96s-16.384-40.96-40.96-40.96h-163.84c-12.288 0-20.48-4.096-28.672-12.288s-12.288-20.48-12.288-28.672v-573.44c0-12.288 4.096-20.48 12.288-28.672s16.384-12.288 28.672-12.288h163.84c24.576 0 40.96-16.384 40.96-40.96s-16.384-40.96-40.96-40.96zM679.936 122.624c-12.288 0-20.48 4.096-28.672 12.288-16.384 16.384-16.384 40.96 0 57.344l135.168 135.168h-393.216c-24.576 0-40.96 16.384-40.96 40.96s16.384 40.96 40.96 40.96h393.216l-135.168 135.168c-16.384 16.384-16.384 40.96 0 57.344s40.96 16.384 57.344 0l204.8-204.8c4.096-4.096 8.192-8.192 8.192-12.288v0c0 0 0 0 0 0s0 0 0 0 0 0 0 0 0 0 0 0c0-4.096 4.096-8.192 4.096-16.384 0 0 0 0 0 0s0 0 0 0 0 0 0 0c0-4.096 0-12.288-4.096-16.384 0-4.096-4.096-8.192-8.192-12.288 0 0 0 0 0 0l-204.8-204.8c-8.192-8.192-16.384-12.288-28.672-12.288z" />
<glyph unicode="&#xe927;" glyph-name="delete" d="M434.176 372.48c-8.192 0-16.384-4.096-24.576-8.192s-8.192-16.384-8.192-24.576v-163.84c0-8.192 4.096-16.384 8.192-24.576 12.288-12.288 36.864-12.288 49.152 0 8.192 8.192 8.192 16.384 8.192 24.576v163.84c0 8.192-4.096 16.384-8.192 24.576s-16.384 8.192-24.576 8.192zM626.688 696.064c-28.672 28.672-69.632 45.056-110.592 45.056s-81.92-16.384-110.592-45.056c-32.768-32.768-49.152-69.632-49.152-114.688v-4.096h-208.896c-8.192 0-20.48-4.096-24.576-12.288s-12.288-12.288-12.288-24.576 4.096-16.384 12.288-24.576 16.384-8.192 24.576-8.192h40.96l36.864-430.080c4.096-40.96 20.48-77.824 49.152-102.4s65.536-40.96 106.496-40.96h266.24c40.96 0 77.824 16.384 106.496 40.96 28.672 28.672 45.056 61.44 49.152 102.4l36.864 430.080h40.96c8.192 0 16.384 4.096 24.576 8.192 8.192 8.192 8.192 16.384 8.192 24.576s-4.096 16.384-8.192 24.576c-4.096 8.192-12.288 12.288-20.48 12.288h-212.992v4.096c0 45.056-16.384 81.92-45.056 114.688zM425.984 581.376c0 24.576 8.192 45.056 24.576 61.44s40.96 24.576 61.44 24.576c24.576 0 45.056-8.192 61.44-24.576s24.576-40.96 24.576-61.44v-4.096h-176.128v4.096zM774.144 507.648l-36.864-421.888c0-20.48-12.288-40.96-28.672-57.344s-36.864-24.576-61.44-24.576h-266.24c-20.48 0-45.056 8.192-61.44 24.576s-24.576 32.768-24.576 57.344l-36.864 421.888h516.096zM598.016 372.48c-8.192 0-16.384-4.096-24.576-8.192s-8.192-16.384-8.192-24.576v-163.84c0-8.192 4.096-16.384 8.192-24.576 12.288-12.288 36.864-12.288 49.152 0 8.192 8.192 8.192 16.384 8.192 24.576v163.84c0 8.192-4.096 16.384-8.192 24.576-8.192 4.096-16.384 8.192-24.576 8.192z" />
<glyph unicode="&#xe928;" glyph-name="edit" d="M733.184-45.312h-512c-28.672 0-57.344 12.288-77.824 32.768s-32.768 49.152-32.768 77.824v516.096c0 28.672 12.288 57.344 32.768 77.824s49.152 28.672 77.824 28.672h258.048c20.48 0 36.864-16.384 36.864-36.864s-16.384-36.864-36.864-36.864h-258.048c-8.192 0-20.48-4.096-24.576-12.288-8.192-4.096-12.288-12.288-12.288-20.48v-512c0-8.192 4.096-20.48 12.288-24.576 8.192-8.192 16.384-12.288 24.576-12.288h512c8.192 0 20.48 4.096 24.576 12.288 8.192 8.192 12.288 16.384 12.288 24.576v258.048c0 20.48 16.384 36.864 36.864 36.864s36.864-16.384 36.864-36.864v-258.048c0-28.672-12.288-57.344-32.768-77.824-20.48-24.576-49.152-36.864-77.824-36.864zM368.64 175.872c-8.192 0-20.48 4.096-24.576 12.288-12.288 8.192-16.384 20.48-12.288 32.768l36.864 147.456c0 8.192 4.096 12.288 8.192 16.384l348.16 348.16c0 0 0 0 0 0 45.056 45.056 118.784 45.056 163.84 0 20.48-20.48 32.768-49.152 32.768-81.92 0-28.672-12.288-57.344-32.768-81.92l-348.16-348.16c-4.096-4.096-12.288-8.192-16.384-8.192l-147.456-36.864c-4.096 0-8.192 0-8.192 0zM438.272 339.712l-20.48-77.824 77.824 20.48 339.968 339.968c8.192 8.192 12.288 16.384 12.288 28.672s-4.096 20.48-12.288 28.672c-16.384 16.384-40.96 16.384-57.344 0l-339.968-339.968z" />
<glyph unicode="&#xe929;" glyph-name="eye" d="M271.689 619.443c-4.304 4.502-10.2 7.14-16.425 7.348s-12.284-2.030-16.879-6.236c-4.594-4.205-7.36-10.043-7.702-16.262s1.764-12.325 5.869-17.010l57.173-62.831c-108.092-66.404-154.545-168.836-156.629-173.604-1.319-3.056-2-6.349-2-9.675 0-3.33 0.68-6.623 2-9.679 0.893-2.085 26.204-58.065 82.186-114.344 74.741-74.445 169.136-114.049 273.059-114.049 53.391-0.213 106.234 10.74 155.14 32.158l65.511-72.061c2.232-2.437 4.944-4.387 7.971-5.718 3.023-1.331 6.291-2.023 9.597-2.023 5.943 0.057 11.661 2.281 16.081 6.255 2.343 2.089 4.243 4.628 5.587 7.463 1.348 2.834 2.109 5.911 2.249 9.048 0.139 3.133-0.348 6.267-1.442 9.208-1.090 2.945-2.757 5.64-4.903 7.93l-476.441 524.082zM412.537 393.431l124.17-136.38c-13.656-7.262-28.897-11.047-44.368-11.018-17.175-0.004-34.030 4.633-48.783 13.418-14.754 8.79-26.862 21.402-35.038 36.504s-12.12 32.133-11.412 49.291c0.707 17.158 6.039 33.808 15.431 48.185zM492.339 150.747c-91.714 0-171.815 33.35-237.921 99.156-27.387 26.849-50.576 57.668-68.786 91.419 13.996 26.206 58.959 99.754 140.848 147.101l53.599-58.959c-20.661-26.571-31.282-59.58-29.993-93.213s14.406-65.733 37.039-90.64c22.635-24.912 53.33-41.038 86.688-45.535 33.354-4.497 67.228 2.92 95.65 20.947l43.774-48.243c-38.588-14.762-79.581-22.233-120.898-22.032zM847.585 331.495c-1.192-2.679-31.265-69.382-99.455-130.425-4.375-3.822-9.978-5.935-15.786-5.956-3.338-0.041-6.648 0.659-9.683 2.052-3.039 1.389-5.73 3.432-7.885 5.988-2.093 2.327-3.707 5.042-4.747 7.991-1.044 2.949-1.495 6.078-1.331 9.204 0.168 3.121 0.946 6.185 2.298 9.007 1.348 2.822 3.24 5.353 5.566 7.447 33.284 29.856 61.182 65.208 82.485 104.518-18.26 33.808-41.443 64.717-68.784 91.714-66.109 65.511-146.211 98.862-237.924 98.862-19.358 0.078-38.683-1.516-57.766-4.764-6.23-0.952-12.583 0.572-17.703 4.245s-8.6 9.203-9.694 15.408c-0.511 3.090-0.408 6.25 0.304 9.299s2.017 5.929 3.844 8.473c1.823 2.544 4.133 4.704 6.795 6.355 2.658 1.651 5.62 2.762 8.708 3.267 21.651 3.607 43.565 5.4 65.511 5.36 103.924 0 198.32-39.604 273.060-114.048 55.98-56.281 81.293-112.261 82.186-114.645 1.319-3.056 1.999-6.349 1.999-9.675 0-3.33-0.68-6.623-1.999-9.679zM510.206 434.821c-3.088 0.59-6.033 1.778-8.663 3.502s-4.895 3.949-6.664 6.55c-3.572 5.247-4.915 11.702-3.731 17.941 1.188 6.239 4.801 11.752 10.052 15.326 5.247 3.574 11.702 4.916 17.94 3.732 30.376-5.941 58.024-21.522 78.84-44.429 20.816-22.905 33.686-51.917 36.696-82.723 0.582-6.275-1.348-12.526-5.366-17.379-4.018-4.858-9.798-7.922-16.073-8.524h-2.384c-5.894-0.025-11.579 2.167-15.938 6.136-4.354 3.969-7.062 9.433-7.586 15.303-2.056 20.513-10.666 39.821-24.56 55.054s-32.326 25.584-52.564 29.512z" />
<glyph unicode="&#xe930;" glyph-name="phone" d="M426.095 278.362c48.153-48.849 106.418-86.565 170.701-110.494l86.966 69.202c2.58 1.778 5.636 2.728 8.765 2.728 3.133 0 6.189-0.95 8.765-2.728l161.477-104.034c6.132-3.686 11.321-8.745 15.159-14.782 3.838-6.033 6.222-12.882 6.959-19.997s-0.188-14.303-2.707-20.996c-2.515-6.697-6.554-12.714-11.796-17.58l-75.665-74.74c-10.834-10.707-24.154-18.563-38.765-22.872-14.61-4.305-30.061-4.927-44.97-1.81-148.738 30.716-285.831 102.662-395.615 207.61-107.347 105.992-181.63 240.857-213.839 388.232-3.182 14.68-2.518 29.932 1.928 44.279s12.522 27.303 23.447 37.612l78.431 75.663c4.853 4.987 10.772 8.813 17.313 11.188s13.535 3.242 20.458 2.531c6.923-0.71 13.595-2.977 19.518-6.631s10.942-8.601 14.682-14.47l107.496-159.399c1.854-2.503 2.855-5.536 2.855-8.65s-1.001-6.148-2.855-8.651l-70.818-85.122c24.581-62.996 62.877-119.73 112.11-166.089z" />
<glyph unicode="&#xe931;" glyph-name="phone-outline" d="M135.168 548.608c0-299.008 245.76-544.768 548.864-544.768 49.152 0 98.304 20.48 139.264 53.248 36.864 32.768 61.44 81.92 69.632 131.072 0 12.288 0 24.576-8.192 32.768-4.096 12.288-16.384 20.48-24.576 24.576l-180.224 77.824c-8.192 4.096-16.384 4.096-28.672 4.096-8.192 0-16.384-4.096-24.576-8.192l-102.4-69.632h-4.096c-61.44 28.672-110.592 77.824-139.264 135.168v4.096l69.632 102.4c4.096 8.192 8.192 16.384 8.192 24.576s0 16.384-4.096 28.672l-77.824 180.224c-4.096 12.288-12.288 20.48-24.576 24.576-8.192 8.192-16.384 8.192-28.672 8.192-4.096 0-4.096 0-8.192 0-45.056-8.192-94.208-32.768-126.976-69.632s-53.248-86.016-53.248-139.264zM323.584 708.352h4.096l81.92-188.416-65.536-98.304c-4.096-8.192-8.192-16.384-8.192-28.672s0-20.48 4.096-28.672c32.768-69.632 90.112-126.976 159.744-159.744 8.192-4.096 16.384-4.096 28.672-4.096 8.192 0 20.48 4.096 24.576 8.192l98.304 65.536h4.096l184.32-77.824v-4.096c-4.096-36.864-24.576-73.728-53.248-98.304s-65.536-40.96-106.496-40.96c-131.072 0-258.048 53.248-352.256 147.456s-147.456 217.088-147.456 352.256c0 36.864 12.288 77.824 40.96 106.496 28.672 24.576 65.536 45.056 102.4 49.152z" />
</font>
</defs>
</svg>
