<svg width="25" height="25" viewBox="0 0 25 25" xmlns="http://www.w3.org/2000/svg">
<path class="st0" d="M20.6,4.3c-0.3-0.3-0.6-0.4-1-0.4h-2.3V3.1c0-0.2-0.1-0.4-0.2-0.5c-0.3-0.3-0.7-0.3-1,0
	c-0.1,0.1-0.2,0.3-0.2,0.5v0.8H8.2V3.1c0-0.2-0.1-0.4-0.2-0.5c-0.3-0.3-0.7-0.3-1,0C6.9,2.7,6.8,2.9,6.8,3.1v0.8H4.5
	c-0.4,0-0.8,0.2-1,0.4c-0.3,0.3-0.4,0.6-0.4,1v15c0,0.4,0.2,0.8,0.4,1c0.3,0.3,0.6,0.4,1,0.4h15c0.4,0,0.8-0.2,1-0.4s0.4-0.6,0.4-1
	v-15C21,4.9,20.8,4.6,20.6,4.3z M19.6,9.8l0,10.6c0,0,0,0,0,0h-15l0,0V9.8H19.6z M7,6.6c0.3,0.3,0.7,0.3,1,0
	c0.1-0.1,0.2-0.3,0.2-0.5V5.3h7.6v0.8c0,0.2,0.1,0.4,0.2,0.5c0.3,0.3,0.7,0.3,1,0c0.1-0.1,0.2-0.3,0.2-0.5V5.3h2.3l0,0v3H4.5l0-3.1
	c0,0,0,0,0,0h2.3v0.8C6.8,6.3,6.9,6.4,7,6.6z"/>
</svg>