<svg width="25" height="25" viewBox="0 0 25 25" xmlns="http://www.w3.org/2000/svg">
<path d="M9.77685 14.8705L17.7715 6.87584C18.02 6.62741 18.3361 6.5032 18.7201 6.5032C19.104 6.5032 19.4201 6.62741 19.6686 6.87584C19.917 7.12426 20.0412 7.44043 20.0412 7.82436C20.0412 8.20828 19.917 8.52446 19.6686 8.77288L10.7254 17.7161C10.4544 17.9871 10.1382 18.1226 9.77685 18.1226C9.41551 18.1226 9.09934 17.9871 8.82833 17.7161L5.30525 14.193C5.05683 13.9446 4.93262 13.6284 4.93262 13.2445C4.93262 12.8606 5.05683 12.5444 5.30525 12.296C5.55367 12.0475 5.86985 11.9233 6.25377 11.9233C6.6377 11.9233 6.95387 12.0475 7.20229 12.296L9.77685 14.8705Z"/>
</svg>
