<svg width="25" height="25" viewBox="0 0 25 25" xmlns="http://www.w3.org/2000/svg">
	<path d="M10.6,12c-0.2,0-0.4,0.1-0.6,0.2s-0.2,0.4-0.2,0.6v4c0,0.2,0.1,0.4,0.2,0.6c0.3,0.3,0.9,0.3,1.2,0c0.2-0.2,0.2-0.4,0.2-0.6
		v-4c0-0.2-0.1-0.4-0.2-0.6S10.8,12,10.6,12z"/>
	<path d="M15.3,4.1C14.6,3.4,13.6,3,12.6,3s-2,0.4-2.7,1.1C9.1,4.9,8.7,5.8,8.7,6.9V7H3.6C3.4,7,3.1,7.1,3,7.3S2.7,7.6,2.7,7.9
		S2.8,8.3,3,8.5s0.4,0.2,0.6,0.2h1l0.9,10.5c0.1,1,0.5,1.9,1.2,2.5s1.6,1,2.6,1h6.5c1,0,1.9-0.4,2.6-1c0.7-0.7,1.1-1.5,1.2-2.5
		l0.9-10.5h1c0.2,0,0.4-0.1,0.6-0.2c0.2-0.2,0.2-0.4,0.2-0.6s-0.1-0.4-0.2-0.6C22,7.1,21.8,7,21.6,7h-5.2V6.9
		C16.4,5.8,16,4.9,15.3,4.1z M10.4,6.9c0-0.6,0.2-1.1,0.6-1.5s1-0.6,1.5-0.6c0.6,0,1.1,0.2,1.5,0.6s0.6,1,0.6,1.5V7h-4.3V6.9z
		 M18.9,8.7L18,19c0,0.5-0.3,1-0.7,1.4c-0.4,0.4-0.9,0.6-1.5,0.6H9.3c-0.5,0-1.1-0.2-1.5-0.6S7.2,19.6,7.2,19L6.3,8.7H18.9z"/>
	<path d="M14.6,12c-0.2,0-0.4,0.1-0.6,0.2s-0.2,0.4-0.2,0.6v4c0,0.2,0.1,0.4,0.2,0.6c0.3,0.3,0.9,0.3,1.2,0c0.2-0.2,0.2-0.4,0.2-0.6
		v-4c0-0.2-0.1-0.4-0.2-0.6C15,12.1,14.8,12,14.6,12z"/>
</svg>
