<svg width="25" height="25" viewBox="0 0 25 25" xmlns="http://www.w3.org/2000/svg">
	<path d="M20.5,21.6H4.1c-0.3,0-0.6-0.3-0.6-0.6v-0.9c0-3.3,2.7-6.1,6.1-6.1c1,0,1.9,0.2,2.7,0.6
		c0.8-0.4,1.8-0.6,2.7-0.6c3.3,0,6.1,2.7,6.1,6.1V21C21.1,21.4,20.8,21.6,20.5,21.6z M15.6,20.4h4.3v-0.3c0-2.7-2.2-4.9-4.9-4.9
		c-0.5,0-1,0.1-1.5,0.2c1.3,1.1,2.1,2.8,2.1,4.6V20.4z M4.7,20.4h9.7v-0.3c0-2.7-2.2-4.9-4.9-4.9c-2.7,0-4.9,2.2-4.9,4.9V20.4z
		 M15,12.6c-1,0-2-0.4-2.7-1c-0.7,0.6-1.7,1-2.7,1c-2.3,0-4.2-1.9-4.2-4.2s1.9-4.2,4.2-4.2c1,0,2,0.4,2.7,1c0.8-0.6,1.7-1,2.7-1
		c2.3,0,4.2,1.9,4.2,4.2S17.4,12.6,15,12.6z M13.1,10.7c0.5,0.4,1.2,0.7,1.9,0.7c1.7,0,3-1.4,3-3s-1.4-3-3-3c-0.7,0-1.4,0.2-1.9,0.7
		c0.4,0.7,0.7,1.5,0.7,2.3S13.6,10,13.1,10.7z M9.6,5.3c-1.7,0-3,1.4-3,3s1.4,3,3,3s3-1.4,3-3S11.3,5.3,9.6,5.3z"/>
</svg>
