<svg width="25" height="25" viewBox="0 0 25 25" xmlns="http://www.w3.org/2000/svg">
<path d="M21.2,8l-6.5-5.2c-0.6-0.5-1.3-0.7-2-0.7s-1.4,0.2-2,0.7L4.1,8c-0.6,0.5-0.9,1.1-1,1.9v8.7
	c0,1.9,1.5,3.4,3.5,3.4h1.9c0.7,0,1.2-0.5,1.2-1.2l0-3.1c0-0.8,0.6-1.4,1.4-1.4h1.4h1.4c0.8,0,1.4,0.6,1.4,1.4l0,3.1
	c0,0.7,0.6,1.2,1.2,1.2h1.9c1.9,0,3.5-1.5,3.5-3.4V9.9C22.2,9.2,21.8,8.5,21.2,8z M20.2,18.6c0,0.8-0.7,1.4-1.5,1.4h-1.2l0-2.3
	c0-1.9-1.5-3.4-3.4-3.4h-1.4h-1.4c-1.9,0-3.4,1.5-3.4,3.4l0,2.3H6.6c-0.8,0-1.5-0.6-1.5-1.4V10c0-0.1,0.1-0.3,0.2-0.4L12,4.3
	C12.2,4.1,12.4,4,12.7,4s0.5,0.1,0.7,0.3L20,9.6c0.1,0.1,0.2,0.2,0.2,0.4V18.6z"/>
</svg>
