<svg width="25" height="25" viewBox="0 0 25 25" xmlns="http://www.w3.org/2000/svg">
<path d="M16.2979 22.4961C16.5557 22.7539 16.8838 22.8945 17.2705 22.8945C18.0439 22.8945 18.665 22.2852 18.665 21.5117C18.665 21.125 18.501 20.7734 18.2314 20.5039L10.0283 12.4883L18.2314 4.49609C18.501 4.22656 18.665 3.86328 18.665 3.48828C18.665 2.71484 18.0439 2.10547 17.2705 2.10547C16.8838 2.10547 16.5557 2.24609 16.2979 2.50391L7.18066 11.4102C6.85254 11.7148 6.7002 12.0898 6.68848 12.5C6.68848 12.9102 6.85254 13.2617 7.18066 13.5781L16.2979 22.4961Z"/>
</svg>
