<svg width="25" height="25" viewBox="0 0 25 25" xmlns="http://www.w3.org/2000/svg">
	<path d="M12.5,8.4c-0.6,0-1,0.2-1.4,0.6c-0.4,0.4-0.6,0.9-0.6,1.4s0.2,1,0.6,1.4c0.4,0.4,0.9,0.6,1.4,0.6s1-0.2,1.4-0.6
		c0.4-0.4,0.6-0.8,0.6-1.4s-0.2-1-0.6-1.4C13.5,8.6,13,8.4,12.5,8.4z"/>
	<path d="M12.5,1.8c-2.2,0-4.2,0.8-6,2.4C4.8,5.8,4,7.9,4,10.6c0,1.8,0.7,3.7,2.1,5.8c1.4,2.1,3.6,4.4,6.4,6.8
		c2.8-2.4,5-4.7,6.4-6.8c1.4-2.1,2.1-4,2.1-5.8c0-2.7-0.9-4.8-2.6-6.4C16.7,2.6,14.7,1.8,12.5,1.8z M17.6,15.1
		c-1.1,1.7-2.7,3.5-5,5.6l-0.1,0.1l-0.1-0.1c-2.2-2-3.9-3.9-5-5.6c-1.1-1.7-1.6-3.2-1.6-4.5c0-2,0.7-3.7,1.9-5
		c1.3-1.3,2.9-1.9,4.8-1.9s3.5,0.7,4.8,1.9c1.3,1.3,2,3,2,5C19.2,11.9,18.7,13.4,17.6,15.1z"/>
</svg>
