<svg width="25" height="25" viewBox="0 0 25 25" xmlns="http://www.w3.org/2000/svg">
<path d="M9.6,22.1h-4c-0.8,0-1.6-0.3-2.1-0.9c-0.6-0.6-0.9-1.3-0.9-2.1v-14c0-0.8,0.3-1.6,0.9-2.1
	c0.6-0.6,1.3-0.9,2.1-0.9h4c0.6,0,1,0.4,1,1s-0.4,1-1,1h-4c-0.3,0-0.5,0.1-0.7,0.3C4.7,4.6,4.6,4.9,4.6,5.1v14
	c0,0.3,0.1,0.5,0.3,0.7c0.2,0.2,0.4,0.3,0.7,0.3h4c0.6,0,1,0.4,1,1S10.2,22.1,9.6,22.1z M16.6,18.1c-0.3,0-0.5-0.1-0.7-0.3
	c-0.4-0.4-0.4-1,0-1.4l3.3-3.3H9.6c-0.6,0-1-0.4-1-1s0.4-1,1-1h9.6l-3.3-3.3c-0.4-0.4-0.4-1,0-1.4s1-0.4,1.4,0l5,5
	c0.1,0.1,0.2,0.2,0.2,0.3v0c0,0,0,0,0,0c0,0,0,0,0,0c0,0,0,0,0,0c0,0,0,0,0,0c0,0.1,0.1,0.2,0.1,0.4c0,0,0,0,0,0c0,0,0,0,0,0
	c0,0,0,0,0,0c0,0.1,0,0.3-0.1,0.4c0,0.1-0.1,0.2-0.2,0.3c0,0,0,0,0,0l-5,5C17.1,18,16.9,18.1,16.6,18.1z"/>
</svg>
