<svg width="25" height="25" viewBox="0 0 25 25" xmlns="http://www.w3.org/2000/svg">
<path d="M10.4027 14.2978C11.5783 15.4904 13.0008 16.4112 14.5702 16.9954L16.6934 15.3059C16.7564 15.2625 16.831 15.2393 16.9074 15.2393C16.9839 15.2393 17.0585 15.2625 17.1214 15.3059L21.0637 17.8458C21.2134 17.9358 21.3401 18.0593 21.4338 18.2067C21.5275 18.354 21.5857 18.5212 21.6037 18.6949C21.6217 18.8686 21.5991 19.0441 21.5376 19.2075C21.4762 19.371 21.3776 19.5179 21.2496 19.6367L19.4023 21.4614C19.1378 21.7228 18.8126 21.9146 18.4559 22.0198C18.0992 22.1249 17.722 22.1401 17.358 22.064C13.7267 21.3141 10.3797 19.5576 7.69942 16.9954C5.07865 14.4077 3.26509 11.1151 2.47873 7.51707C2.40105 7.15868 2.41726 6.78631 2.5258 6.43603C2.63434 6.08575 2.83152 5.76945 3.09823 5.51778L5.01305 3.67054C5.13154 3.54878 5.27604 3.45539 5.43574 3.39739C5.59544 3.33938 5.76619 3.31825 5.93521 3.33559C6.10422 3.35293 6.26713 3.40827 6.41173 3.49749C6.55632 3.5867 6.67886 3.70748 6.77017 3.85076L9.39459 7.74234C9.43986 7.80345 9.4643 7.87749 9.4643 7.95353C9.4643 8.02958 9.43986 8.10362 9.39459 8.16473L7.66563 10.2429C8.26574 11.7809 9.20071 13.166 10.4027 14.2978Z"/>
</svg>
