<svg width="25" height="25" viewBox="0 0 25 25" xmlns="http://www.w3.org/2000/svg">
<path d="M18.4683 13.8685H13.4683V18.8685C13.4683 19.1337 13.3629 19.388 13.1754 19.5756C12.9878 19.7631 12.7335 19.8685 12.4683 19.8685C12.203 19.8685 11.9487 19.7631 11.7612 19.5756C11.5736 19.388 11.4683 19.1337 11.4683 18.8685V13.8685H6.46826C6.20305 13.8685 5.94869 13.7631 5.76116 13.5756C5.57362 13.388 5.46826 13.1337 5.46826 12.8685C5.46826 12.6033 5.57362 12.3489 5.76116 12.1614C5.94869 11.9738 6.20305 11.8685 6.46826 11.8685H11.4683V6.86847C11.4683 6.60325 11.5736 6.3489 11.7612 6.16136C11.9487 5.97383 12.203 5.86847 12.4683 5.86847C12.7335 5.86847 12.9878 5.97383 13.1754 6.16136C13.3629 6.3489 13.4683 6.60325 13.4683 6.86847V11.8685H18.4683C18.7335 11.8685 18.9878 11.9738 19.1754 12.1614C19.3629 12.3489 19.4683 12.6033 19.4683 12.8685C19.4683 13.1337 19.3629 13.388 19.1754 13.5756C18.9878 13.7631 18.7335 13.8685 18.4683 13.8685Z"/>
</svg>
