<svg width="25" height="25" viewBox="0 0 25 25" xmlns="http://www.w3.org/2000/svg">
<path d="M18.1597 22.116C17.3263 22.116 16.618 21.8243 16.0347 21.241C15.4513 20.6576 15.1597 19.9493 15.1597 19.116C15.1597 18.9993 15.168 18.8783 15.1847 18.753C15.2013 18.6283 15.2263 18.516 15.2597 18.416L8.20967 14.316C7.92633 14.566 7.60967 14.7616 7.25967 14.903C6.90967 15.045 6.543 15.116 6.15967 15.116C5.32633 15.116 4.618 14.8243 4.03467 14.241C3.45133 13.6576 3.15967 12.9493 3.15967 12.116C3.15967 11.2826 3.45133 10.5743 4.03467 9.99097C4.618 9.40763 5.32633 9.11597 6.15967 9.11597C6.543 9.11597 6.90967 9.18663 7.25967 9.32797C7.60967 9.46997 7.92633 9.66597 8.20967 9.91597L15.2597 5.81597C15.2263 5.71597 15.2013 5.60363 15.1847 5.47897C15.168 5.35363 15.1597 5.23263 15.1597 5.11597C15.1597 4.28263 15.4513 3.5743 16.0347 2.99097C16.618 2.40763 17.3263 2.11597 18.1597 2.11597C18.993 2.11597 19.7013 2.40763 20.2847 2.99097C20.868 3.5743 21.1597 4.28263 21.1597 5.11597C21.1597 5.9493 20.868 6.65763 20.2847 7.24097C19.7013 7.8243 18.993 8.11597 18.1597 8.11597C17.7763 8.11597 17.4097 8.04497 17.0597 7.90297C16.7097 7.76163 16.393 7.56597 16.1097 7.31597L9.05967 11.416C9.093 11.516 9.118 11.6283 9.13467 11.753C9.15134 11.8783 9.15967 11.9993 9.15967 12.116C9.15967 12.2326 9.15134 12.3533 9.13467 12.478C9.118 12.6033 9.093 12.716 9.05967 12.816L16.1097 16.916C16.393 16.666 16.7097 16.47 17.0597 16.328C17.4097 16.1866 17.7763 16.116 18.1597 16.116C18.993 16.116 19.7013 16.4076 20.2847 16.991C20.868 17.5743 21.1597 18.2826 21.1597 19.116C21.1597 19.9493 20.868 20.6576 20.2847 21.241C19.7013 21.8243 18.993 22.116 18.1597 22.116Z"/>
</svg>
