<svg width="25" height="25" viewBox="0 0 25 25" xmlns="http://www.w3.org/2000/svg">
	<path d="M23.2,20.2h-6.1v-3.8h-1.5v3.8H1.7v-4.6l0.5-0.1c0.6-0.1,1.2-0.4,1.7-0.9l0,0c0.6-0.6,0.9-1.4,0.9-2.2
		c0-0.8-0.3-1.6-0.9-2.2c-0.5-0.5-1-0.7-1.7-0.9L1.7,9.4V4.8h13.8v3.8h1.5V4.8h6.1v4.6l-0.5,0.1c-0.6,0.1-1.2,0.4-1.7,0.9
		c-0.6,0.6-0.9,1.4-0.9,2.2c0,0.8,0.3,1.6,0.9,2.2c0.5,0.5,1,0.7,1.7,0.9l0.5,0.1V20.2z M18.3,18.9H22v-2.3
		c-0.7-0.2-1.3-0.6-1.8-1.1c-0.8-0.8-1.3-1.9-1.3-3c0-1.1,0.4-2.2,1.3-3c0.5-0.5,1.1-0.9,1.8-1.1V6h-3.7V18.9z M3,18.9h11.4V6H3v2.3
		c0.7,0.2,1.3,0.6,1.8,1.1c0.8,0.8,1.3,1.9,1.3,3c0,0.9-0.3,1.8-0.9,2.6l0,0l-0.4,0.4c0,0,0,0,0,0L4.4,16l0,0
		c-0.4,0.3-0.9,0.5-1.3,0.7V18.9z M15.6,14.8h1.5v-4.6h-1.5V14.8z"/>
</svg>
