<svg width="25" height="25" viewBox="0 0 25 25" xmlns="http://www.w3.org/2000/svg">
<path d="M7.85756 15.2976L6.04694 13.4439C6.89477 12.596 7.89004 11.9244 9.03275 11.4289C10.1749 10.9328 11.407 10.6848 12.729 10.6848C14.0511 10.6848 15.2834 10.9363 16.4261 11.4392C17.5683 11.9422 18.5633 12.6248 19.4111 13.487L17.6005 15.2976C16.9682 14.6653 16.2353 14.1696 15.4019 13.8103C14.5684 13.4511 13.6774 13.2714 12.729 13.2714C11.7806 13.2714 10.8896 13.4511 10.0562 13.8103C9.22272 14.1696 8.48985 14.6653 7.85756 15.2976ZM4.1932 11.6332L2.38257 9.82262C3.70461 8.47183 5.2494 7.41563 7.01692 6.65402C8.78443 5.8924 10.6885 5.5116 12.729 5.5116C14.7696 5.5116 16.6736 5.8924 18.4411 6.65402C20.2086 7.41563 21.7534 8.47183 23.0755 9.82262L21.2648 11.6332C20.1583 10.5268 18.876 9.66081 17.4177 9.03542C15.9588 8.41061 14.3959 8.09821 12.729 8.09821C11.0621 8.09821 9.4992 8.41061 8.04035 9.03542C6.58208 9.66081 5.29969 10.5268 4.1932 11.6332ZM12.729 20.1691L15.7683 17.1082C15.3803 16.7203 14.9276 16.4147 14.4103 16.1917C13.893 15.9693 13.3326 15.858 12.729 15.858C12.1255 15.858 11.565 15.9693 11.0477 16.1917C10.5304 16.4147 10.0777 16.7203 9.68975 17.1082L12.729 20.1691Z"/>
</svg>
